<svg width="26" height="36" viewBox="0 0 26 36" xmlns="http://www.w3.org/2000/svg"><path d="M25.628 1.888c-.27-.111-6.712-2.672-11.723.027-3.971 2.14-10.942.534-12.723.07V.6C1.182.268.918 0 .59 0A.595.595 0 0 0 0 .6v1.8c0 .008.004.016.005.024 0 .007-.005.013-.005.02V35.4c0 .332.264.6.59.6.328 0 .592-.268.592-.6V21.225c1.343.34 4.27.98 7.308.98 2.102 0 4.255-.307 5.969-1.23 4.522-2.437 10.67.002 10.73.027a.579.579 0 0 0 .552-.061.601.601 0 0 0 .259-.497v-18a.6.6 0 0 0-.372-.556zm-.81 17.711c-1.926-.623-6.882-1.858-10.913.315-3.97 2.14-10.939.535-12.723.07V3.226c2.277.577 9.089 2.006 13.277-.25 3.88-2.09 8.957-.591 10.36-.109V19.6z" fill="#1C6FB8" fill-rule="evenodd"/></svg>