<svg width="56" height="48" viewBox="0 0 56 48" xmlns="http://www.w3.org/2000/svg"><g stroke-width="2" fill="none" fill-rule="evenodd"><path d="M50.313 14.563c-1.274-4.303-3.308-9.558-7.32-11.865C39.074.231 33.53.925 29.177 1.84 20.914 3.58 12.732 6.23 4.71 8.865c-1.766.58-3.675 2.04-3.71 4.102-.033 2.058 2.107 3.149 3.912 3.05 4.598-.254 9.144-1.255 13.725-1.73 2.139-.222 7.594-.81 11.988-.548a47.19 47.19 0 0 1 6.873.878c5.56 1.131 10.48 3.221 14.483 6.124a139.192 139.192 0 0 0-1.668-6.178z" stroke="#1C6FB8"/><path d="M54.835 41.224c-.857-4.72-1.734-9.485-2.77-14.207-4.497-4.32-10.088-6.492-14.505-7.582 2.59 3.812 5.02 9.79 5.927 11.996 1.765 4.296 3.057 8.81 5.024 13.016.773 1.65 2.742 3.033 4.517 2.024 1.78-1.012 2.142-3.403 1.807-5.247z" stroke="#F40400"/></g></svg>