<svg width="55" height="57" viewBox="0 0 55 57" xmlns="http://www.w3.org/2000/svg"><g fill="none" fill-rule="evenodd"><path d="M33.86 2.267a.976.976 0 0 0-1.34 0L28.707 6.08a.95.95 0 0 0 1.341 1.341l3.142-3.143 19.52 19.524-5.967 5.968c-.67.67-1.3.67-2.174.67h-7.586c-1.019 0-2.289 0-3.515 1.227L11.2 53.94c-.765.766-1.5 1.158-2.18 1.164-.693.018-1.408-.373-2.162-1.127l-3.822-3.822c-.759-.76-1.142-1.488-1.14-2.17 0-.68.387-1.412 1.147-2.172l22.284-22.288c1.226-1.226 1.226-2.496 1.226-3.515V12.42c0-.52 0-.954.141-1.362l.806-.743c-.37-.37-1.248-1.781-1.618-1.41-1.226 1.226-1.226 2.495-1.226 3.515v7.588c0 .872 0 1.504-.67 2.174L1.702 44.471c-2.267 2.267-2.27 4.762-.007 7.023l3.822 3.824C6.633 56.435 7.805 57 9.001 57c1.233-.011 2.41-.59 3.54-1.72l22.268-22.272c.67-.67 1.301-.67 2.174-.67h7.586c1.02 0 2.29 0 3.515-1.227l6.638-6.638c.37-.37.37-.97 0-1.342L33.861 2.267z" fill="#1C6FB8"/><path d="M46.875 10a.873.873 0 0 0 .619-.256l5.25-5.25a.874.874 0 1 0-1.238-1.237l-5.25 5.25a.874.874 0 0 0 .62 1.493zM41.553 4.913c.143.059.296.087.446.087.367 0 .72-.168.895-.46l2-3.334c.248-.411.047-.912-.447-1.118-.495-.206-1.093-.038-1.342.373l-1.999 3.333c-.248.412-.047.912.447 1.119z" fill="#F40400"/><path d="M18.448 32.758l-2.667 2.675A2.667 2.667 0 0 0 15 37.325c0 .714.278 1.386.781 1.891a2.643 2.643 0 0 0 1.886.784c.712 0 1.382-.278 1.885-.784l2.667-2.674A2.667 2.667 0 0 0 23 34.65c0-.715-.278-1.387-.781-1.892-1.007-1.01-2.764-1.01-3.771 0zm-.153 5.197a.907.907 0 0 1-1.257 0 .88.88 0 0 1-.26-.63c0-.238.091-.462.26-.63l.26-.262 1.258 1.26-.26.262zm2.927-3.305a.883.883 0 0 1-.26.63l-1.15 1.153-1.256-1.26 1.149-1.154a.882.882 0 0 1 1.257.001.88.88 0 0 1 .26.63z" fill="#1C6FB8"/><path d="M54.911 11.554c-.205-.494-.705-.695-1.117-.448l-3.333 2c-.412.246-.58.847-.372 1.341.145.351.44.553.745.553a.715.715 0 0 0 .372-.106l3.333-2c.412-.247.58-.846.372-1.34z" fill="#F40400"/><path d="M25.25 24.25a.858.858 0 0 0 0 1.213l4.286 4.286a.854.854 0 0 0 1.213 0 .858.858 0 0 0 0-1.212l-4.286-4.286a.858.858 0 0 0-1.212 0zM25.545 9.356l6.519-6.646L54 24.625 46.663 31z" fill="#1C6FB8"/></g></svg>