<svg width="14" height="17" viewBox="0 0 14 17" xmlns="http://www.w3.org/2000/svg"><g fill="#1C6FB8" fill-rule="evenodd"><path d="M11.376 6.164h-.15V4.422C11.225 1.984 9.3 0 6.933 0 4.567 0 2.642 1.984 2.642 4.422v1.742h-.15c-1.351 0-2.45 1.132-2.45 2.523v5.653c0 1.391 1.099 2.523 2.45 2.523h8.884c1.35 0 2.45-1.132 2.45-2.523V8.687c-.001-1.391-1.1-2.523-2.45-2.523zM4.142 4.422c0-1.586 1.252-2.877 2.792-2.877 1.54 0 2.792 1.29 2.792 2.877v1.742H4.142V4.422zm8.183 9.918c0 .54-.426.978-.949.978H2.491c-.523 0-.949-.439-.949-.978V8.687c0-.54.426-.978.95-.978h8.884c.524 0 .95.439.95.978l-.001 5.653z"/><path d="M6.934 9.572c-.83 0-1.504.694-1.504 1.55 0 .573.304 1.073.754 1.34v1.723h1.5v-1.722c.45-.268.753-.768.753-1.342 0-.855-.673-1.549-1.503-1.549z"/></g></svg>