<svg width="16" height="16" viewBox="0 0 16 16" xmlns="http://www.w3.org/2000/svg"><g fill="#1C6FB8" fill-rule="evenodd"><path d="M8 0C3.589 0 0 3.589 0 8s3.589 8 8 8 8-3.589 8-8-3.589-8-8-8zm0 14.545A6.553 6.553 0 0 1 1.455 8 6.553 6.553 0 0 1 8 1.455 6.553 6.553 0 0 1 14.545 8 6.553 6.553 0 0 1 8 14.545z"/><path d="M8 11.152a.97.97 0 0 0 0 1.939.97.97 0 0 0 0-1.94zM8 2.91a2.67 2.67 0 0 0-2.668 2.667.727.727 0 0 0 1.455 0c0-.67.544-1.213 1.213-1.213.67 0 1.213.544 1.213 1.213S8.67 6.79 8 6.79a.727.727 0 0 0-.727.728V8.97a.727.727 0 0 0 1.454 0v-.827a2.672 2.672 0 0 0 1.941-2.566A2.67 2.67 0 0 0 8 2.909z"/></g></svg>