<svg width="19" height="16" viewBox="0 0 19 16" xmlns="http://www.w3.org/2000/svg"><g fill="#1C6FB8" fill-rule="evenodd"><path d="M18.826 12.205l-3.58-1.497-5.153 1.99a1.754 1.754 0 0 1-.62.106c-.216 0-.432-.035-.618-.106l-5.154-1.99-3.58 1.497c-.163.067-.161.174.004.238l9.05 3.494a.958.958 0 0 0 .598 0l9.05-3.494c.165-.063.166-.17.003-.238z"/><path d="M18.826 8.17l-3.58-1.496-5.153 1.988a1.745 1.745 0 0 1-.619.107c-.217 0-.434-.035-.62-.107L3.702 6.674.121 8.17c-.163.067-.161.174.004.238l9.05 3.493a.963.963 0 0 0 .598 0l9.05-3.493c.165-.064.166-.17.003-.238z"/><path d="M.125 4.375l4.72 1.822 4.33 1.671a.958.958 0 0 0 .598 0l4.332-1.672 4.718-1.82c.165-.064.166-.171.004-.24L9.768.35a.879.879 0 0 0-.59 0L.121 4.137c-.163.068-.161.175.004.238z"/></g></svg>