<svg width="41" height="50" viewBox="0 0 41 50" xmlns="http://www.w3.org/2000/svg" xmlns:xlink="http://www.w3.org/1999/xlink"><defs><path d="M39.577 0H.935C.531.13.257.529.257.982v29.303c0 9.065 12.842 17.126 19.718 19.43a.892.892 0 0 0 .564 0c6.874-2.302 19.718-10.365 19.718-19.43V.982c-.002-.453-.278-.853-.68-.982z" id="a"/></defs><g fill="none" fill-rule="evenodd"><mask id="b" fill="#fff"><use xlink:href="#a"/></mask><path d="M2 6v46M6 6v46M10 6v46M14 6v46M-2 6v46M-6 6v46M-10 6v46M30 6v46M34 6v46M38 6v46M42 6v46M26 6v46M22 6v46M18 6v46" stroke="#F40400" stroke-width="2" stroke-linecap="square" mask="url(#b)"/><path fill="#1C6FB8" mask="url(#b)" d="M0 0h41v9.95H0z"/></g></svg>