<?xml version="1.0" encoding="UTF-8"?>
<svg width="12px" height="12px" viewBox="0 0 12 12" version="1.1" xmlns="http://www.w3.org/2000/svg" xmlns:xlink="http://www.w3.org/1999/xlink">
    <!-- Generator: Sketch 42 (36781) - http://www.bohemiancoding.com/sketch -->
    <title>plus-symbol</title>
    <desc>Created with Sketch.</desc>
    <defs></defs>
    <g id="Map" stroke="none" stroke-width="1" fill="none" fill-rule="evenodd">
        <g id="Map---Advanced" transform="translate(-894.000000, -246.000000)" fill="#1C6FB8">
            <g id="3-/-Advanced" transform="translate(43.000000, 105.000000)">
                <g id="Search" transform="translate(24.000000, 115.000000)">
                    <g id="add" transform="translate(821.000000, 19.000000)">
                        <g id="plus-symbol" transform="translate(6.000000, 7.000000)">
                            <g id="Capa_1">
                                <path d="M0.413791593,6.27242504 C0.183245242,6.27242504 0,6.0832206 0,5.85267425 C0,5.6221279 0.183245242,5.43888266 0.413791593,5.43888266 L5.43255101,5.43888266 L5.43255101,0.419750788 C5.43292346,0.189204437 5.6221279,0 5.85267425,0 C6.0832206,0 6.26646584,0.189204437 6.26646584,0.419750788 L6.26646584,5.43888266 L11.2852253,5.43888266 C11.5157716,5.43888266 11.704976,5.6221279 11.704976,5.85267425 C11.704976,6.0832206 11.5157716,6.27242504 11.2852253,6.27242504 L6.26646584,6.27242504 L6.26646584,11.2915569 C6.26646584,11.5221033 6.0832206,11.7113077 5.85267425,11.7113077 C5.6221279,11.7113077 5.43292346,11.5221033 5.43292346,11.2915569 L5.43292346,6.27242504 L0.413791593,6.27242504 Z" id="Shape"></path>
                            </g>
                        </g>
                    </g>
                </g>
            </g>
        </g>
    </g>
</svg>