<svg width="36" height="36" viewBox="0 0 36 36" xmlns="http://www.w3.org/2000/svg"><g fill="#1C6FB8" fill-rule="evenodd"><path d="M18 15.6c2.316 0 4.2-1.885 4.2-4.2 0-2.315-1.884-4.2-4.2-4.2a4.205 4.205 0 0 0-4.2 4.2c0 2.315 1.884 4.2 4.2 4.2zm0-7.2c1.654 0 3 1.346 3 3s-1.346 3-3 3-3-1.346-3-3 1.346-3 3-3z"/><path d="M17.894 32.854l9.204-13.294c3.453-4.603 2.954-12.168-1.068-16.19A11.43 11.43 0 0 0 17.894 0a11.431 11.431 0 0 0-8.136 3.37C5.736 7.391 5.237 14.957 8.675 19.541l9.219 13.313zM10.606 4.22A10.24 10.24 0 0 1 17.894 1.2a10.24 10.24 0 0 1 7.287 3.019c3.63 3.629 4.077 10.462.944 14.639l-8.231 11.888L9.649 18.84c-3.12-4.16-2.672-10.992.957-14.621z"/><path d="M25.27 25.804a.6.6 0 0 0-.14 1.192c6.31.743 9.67 2.744 9.67 3.904 0 1.628-6.391 3.9-16.8 3.9S1.2 32.528 1.2 30.9c0-1.16 3.36-3.161 9.67-3.904a.6.6 0 0 0-.14-1.192C4.412 26.548 0 28.644 0 30.9 0 33.434 6.183 36 18 36s18-2.566 18-5.1c0-2.257-4.412-4.352-10.73-5.096z"/></g></svg>