<svg width="25" height="30" viewBox="0 0 25 30" xmlns="http://www.w3.org/2000/svg" xmlns:xlink="http://www.w3.org/1999/xlink"><defs><path d="M24.132 0H.57a.61.61 0 0 0-.413.59V18.17c0 5.44 7.83 10.275 12.023 11.658a.552.552 0 0 0 .344 0c4.191-1.381 12.023-6.219 12.023-11.658V.589A.614.614 0 0 0 24.132 0z" id="a"/></defs><g fill="none" fill-rule="evenodd"><mask id="b" fill="#fff"><use xlink:href="#a"/></mask><path d="M1.22 3.6v27.6M3.659 3.6v27.6M6.098 3.6v27.6M8.537 3.6v27.6M18.293 3.6v27.6M20.732 3.6v27.6M23.17 3.6v27.6M15.854 3.6v27.6M13.415 3.6v27.6M10.976 3.6v27.6" stroke="#2289E4" stroke-width="1.2" stroke-linecap="square" mask="url(#b)"/><path fill="#1C6FB8" mask="url(#b)" d="M0 0h25v5.97H0z"/></g></svg>