<svg width="30" height="30" viewBox="0 0 30 30" xmlns="http://www.w3.org/2000/svg"><g fill="#1C6FB8" fill-rule="evenodd"><path d="M27.636 0H9.076C4.07 0 0 4.071 0 9.075v18.56A2.367 2.367 0 0 0 2.364 30a3.711 3.711 0 0 0 3.668-3.096l2.542-14.927a4.166 4.166 0 0 1 3.403-3.403l14.927-2.542A3.711 3.711 0 0 0 30 2.364 2.367 2.367 0 0 0 27.636 0zM4.854 26.704a2.519 2.519 0 0 1-2.49 2.1 1.17 1.17 0 0 1-1.169-1.168V25.09h3.933l-.274 1.614zm.478-2.81H1.195v-.964h4.301l-.164.965zM21.734 5.7l-9.957 1.696a5.363 5.363 0 0 0-4.38 4.38L5.7 21.735H1.195V9.075c0-4.345 3.535-7.88 7.88-7.88h12.66V5.7zm2.16-.368l-.964.164v-4.3h.965v4.136zm2.81-.478l-1.614.274V1.195h2.546a1.17 1.17 0 0 1 1.169 1.17 2.519 2.519 0 0 1-2.101 2.489z"/><path d="M13.822 1.899h-.524a.598.598 0 0 0 0 1.195h.524a.598.598 0 0 0 0-1.195zM20.434 1.899h-4.06a.598.598 0 0 0 0 1.195h4.06a.598.598 0 0 0 0-1.195z"/></g></svg>