<svg width="30" height="30" viewBox="0 0 30 30" xmlns="http://www.w3.org/2000/svg"><g fill="#1C6FB8" fill-rule="evenodd"><path d="M25.607 4.393A14.902 14.902 0 0 0 15 0C10.993 0 7.227 1.56 4.393 4.393A14.902 14.902 0 0 0 0 15c0 4.007 1.56 7.773 4.393 10.607A14.901 14.901 0 0 0 15 30c4.007 0 7.773-1.56 10.607-4.393A14.902 14.902 0 0 0 30 15c0-4.007-1.56-7.773-4.393-10.607zM15 28.805C7.388 28.805 1.195 22.612 1.195 15S7.388 1.195 15 1.195 28.805 7.388 28.805 15 22.612 28.805 15 28.805z"/><path d="M15 2.33C8.014 2.33 2.33 8.015 2.33 15S8.015 27.67 15 27.67 27.67 21.985 27.67 15 21.985 2.33 15 2.33zm0 24.144C8.673 26.474 3.526 21.327 3.526 15S8.673 3.526 15 3.526 26.474 8.673 26.474 15 21.327 26.474 15 26.474z"/><path d="M18.904 18.06l-3.306-3.307V7.887a.598.598 0 0 0-1.196 0V15c0 .158.063.31.175.423l3.482 3.482a.596.596 0 0 0 .846 0 .598.598 0 0 0 0-.846zM15 4.482a.598.598 0 0 0-.598.598v.657a.598.598 0 0 0 1.196 0V5.08A.598.598 0 0 0 15 4.482zM15 23.665a.598.598 0 0 0-.598.598v.657a.598.598 0 0 0 1.196 0v-.657a.598.598 0 0 0-.598-.598zM24.92 14.402h-.657a.598.598 0 0 0 0 1.196h.657a.598.598 0 0 0 0-1.196zM5.737 14.402H5.08a.598.598 0 0 0 0 1.196h.657a.598.598 0 0 0 0-1.196z"/></g></svg>