<svg width="22" height="16" viewBox="0 0 22 16" xmlns="http://www.w3.org/2000/svg"><g stroke-width=".614" stroke="#1C6FB8" fill="#1C6FB8" fill-rule="evenodd"><path d="M17.007 12.036a.32.32 0 0 1-.221-.088L13.06 8.443a.325.325 0 0 1 .444-.473l3.725 3.505a.325.325 0 0 1-.222.561zM4.571 12.036a.324.324 0 0 1-.222-.561L8.076 7.97a.323.323 0 1 1 .444.473l-3.727 3.505a.32.32 0 0 1-.222.088z"/><path d="M19.21 15.295H2.37A1.623 1.623 0 0 1 .75 13.672V2.602C.75 1.709 1.476.98 2.369.98H19.21c.893 0 1.62.728 1.62 1.623v11.069c0 .895-.727 1.623-1.62 1.623zM2.37 1.629a.974.974 0 0 0-.972.974v11.069c0 .537.436.974.972.974H19.21a.974.974 0 0 0 .972-.974V2.602a.974.974 0 0 0-.972-.973H2.37z"/><path d="M10.79 9.769c-.431 0-.862-.144-1.19-.43L1.288 2.066a.326.326 0 0 1-.031-.458.325.325 0 0 1 .457-.032l8.313 7.273c.414.361 1.113.361 1.526 0l8.303-7.261a.323.323 0 0 1 .457.031.326.326 0 0 1-.03.459l-8.304 7.26c-.328.287-.758.43-1.188.43z"/></g></svg>