<svg xmlns="http://www.w3.org/2000/svg" viewBox="0 0 26 26"><path fill="none" stroke="#1C6FB8" stroke-width="1.5" stroke-miterlimit="10" d="M22.89 5.053a8.14 8.14 0 0 1-2.608 1.01 4.064 4.064 0 0 0-2.995-1.315c-2.265 0-4.102 1.865-4.102 4.166 0 .327.035.644.105.95-3.41-.175-6.433-1.832-8.459-4.356a4.213 4.213 0 0 0-.555 2.097c0 1.445.725 2.72 1.826 3.468a4.063 4.063 0 0 1-1.86-.52v.051c0 2.02 1.415 3.704 3.293 4.086a3.944 3.944 0 0 1-1.081.146c-.264 0-.522-.024-.772-.073.522 1.654 2.036 2.86 3.832 2.892a8.152 8.152 0 0 1-6.075 1.727 11.504 11.504 0 0 0 6.29 1.87c7.55 0 11.676-6.348 11.676-11.854 0-.181-.004-.362-.01-.54a8.376 8.376 0 0 0 2.046-2.157 8.084 8.084 0 0 1-2.356.656 4.165 4.165 0 0 0 1.804-2.304z"/></svg>