<svg width="26" height="20" viewBox="0 0 26 20" xmlns="http://www.w3.org/2000/svg"><path d="M23.519 1.55a8.497 8.497 0 0 1-2.723 1.054A4.243 4.243 0 0 0 17.67 1.23c-2.364 0-4.282 1.947-4.282 4.35 0 .34.037.672.11.99C9.937 6.39 6.78 4.66 4.666 2.025a4.398 4.398 0 0 0-.58 2.189c0 1.508.757 2.84 1.906 3.62a4.241 4.241 0 0 1-1.941-.542v.053c0 2.109 1.477 3.867 3.438 4.265-.36.103-.738.153-1.13.153-.275 0-.544-.026-.805-.077.545 1.728 2.126 2.986 4.001 3.02a8.511 8.511 0 0 1-6.342 1.803 12.01 12.01 0 0 0 6.566 1.953c7.882 0 12.19-6.628 12.19-12.376 0-.19-.004-.379-.01-.564a8.745 8.745 0 0 0 2.135-2.252 8.44 8.44 0 0 1-2.46.685A4.348 4.348 0 0 0 23.52 1.55z" stroke-width="1.229" stroke="#1C6FB8" fill="none" fill-rule="evenodd"/></svg>