<svg xmlns="http://www.w3.org/2000/svg" viewBox="0 0 26 26"><path fill="none" stroke="#1C6FB8" stroke-miterlimit="10" d="M22.523 6.482a.324.324 0 0 0-.457-.031l-8.303 7.26c-.413.362-1.113.362-1.526 0L3.923 6.44a.325.325 0 0 0-.457.031.326.326 0 0 0 .032.459l6.77 5.922-3.708 3.487a.325.325 0 0 0 .443.472l3.727-3.505c.01-.01.007-.025.016-.035l1.065.932c.328.286.758.43 1.189.43s.86-.144 1.189-.431l1.065-.932c.01.01.006.027.017.036l3.725 3.505a.32.32 0 0 0 .458-.014.325.325 0 0 0-.014-.458l-3.707-3.488 6.759-5.91a.326.326 0 0 0 .03-.458z"/><path fill="none" stroke="#1C6FB8" stroke-width="1.5" stroke-miterlimit="10" d="M21 20H5a2 2 0 0 1-2-2V8a2 2 0 0 1 2-2h16a2 2 0 0 1 2 2v10a2 2 0 0 1-2 2z"/></svg>