<svg xmlns="http://www.w3.org/2000/svg" viewBox="0 0 26 26"><path fill="none" stroke="#1C6FB8" stroke-width="1.5" stroke-miterlimit="10" d="M13 2.067c-6.198 0-11.221 5.019-11.221 11.21 0 4.952 3.215 9.154 7.674 10.636.561.104.766-.243.766-.54 0-.266-.01-.971-.015-1.906-3.122.678-3.781-1.503-3.781-1.503-.51-1.295-1.245-1.64-1.245-1.64-1.02-.695.076-.68.076-.68 1.126.078 1.72 1.155 1.72 1.155 1 1.712 2.625 1.217 3.265.93.102-.724.392-1.218.713-1.499-2.492-.282-5.111-1.243-5.111-5.539 0-1.224.437-2.224 1.155-3.008-.116-.284-.501-1.423.11-2.967 0 0 .942-.301 3.085 1.15a10.778 10.778 0 0 1 2.81-.378 10.8 10.8 0 0 1 2.809.377c2.142-1.45 3.082-1.149 3.082-1.149.613 1.544.228 2.683.112 2.967.72.784 1.154 1.784 1.154 3.008 0 4.306-2.624 5.254-5.124 5.532.403.346.762 1.03.762 2.075 0 1.499-.014 2.707-.014 3.075 0 .3.202.649.772.539 4.455-1.485 7.667-5.684 7.667-10.635 0-6.191-5.024-11.21-11.222-11.21z"/></svg>