<?xml version="1.0" encoding="UTF-8"?>
<svg width="41px" height="46px" viewBox="0 0 41 46" version="1.1" xmlns="http://www.w3.org/2000/svg" xmlns:xlink="http://www.w3.org/1999/xlink">
    <!-- Generator: Sketch 41.1 (35376) - http://www.bohemiancoding.com/sketch -->
    <title>scl-icn-twitter</title>
    <desc>Created with Sketch.</desc>
    <defs></defs>
    <g id="Symbols" stroke="none" stroke-width="1" fill="none" fill-rule="evenodd">
        <g id="Footer" transform="translate(-927.000000, -33.000000)" stroke-width="1.2288" stroke="#1C6FB8">
            <g id="Connected">
                <g transform="translate(775.000000, 34.000000)">
                    <g id="Group-Copy" transform="translate(144.000000, 0.000000)">
                        <g id="scl-icn-twitter" transform="translate(9.000000, 0.000000)">
                            <path d="M37.154152,34.3542886 L21.3456942,43.5040829 C20.2034219,44.1653057 18.7962704,44.1653057 17.6539982,43.5040829 L1.84584803,34.3542886 C0.70388338,33.6930658 0,32.4717773 0,31.1493317 L0,12.8500515 C0,11.5279143 0.70388338,10.3063174 1.84584803,9.645403 L17.6539982,0.495917123 C18.7962704,-0.165305708 20.2034219,-0.165305708 21.3456942,0.495917123 L37.154152,9.645403 C38.2964243,10.3063174 39,11.5279143 39,12.8500515 L39,31.1493317 C39,32.4717773 38.2964243,33.6930658 37.154152,34.3542886 L37.154152,34.3542886 Z" id="Stroke-183" stroke-linecap="round"></path>
                            <path d="M29.5185019,13.5493546 C28.6898091,14.047068 27.7742097,14.409291 26.7960501,14.6036769 C26.0166658,13.7583881 24.9022912,13.2307692 23.6692676,13.2307692 C21.3049196,13.2307692 19.3868145,15.1782902 19.3868145,17.5804971 C19.3868145,17.9216642 19.423796,18.2527611 19.4971425,18.5713464 C15.9370606,18.389472 12.7803848,16.659529 10.6659698,14.0247914 C10.2973879,14.6692859 10.0865936,15.4175343 10.0865936,16.2139978 C10.0865936,17.7223958 10.8428645,19.054107 11.9923715,19.8343971 C11.2912647,19.813036 10.6292965,19.6152933 10.0508449,19.2918254 L10.0508449,19.3452282 C10.0508449,21.4535676 11.5276378,23.2121954 13.488888,23.6104272 C13.1295514,23.7126552 12.7511078,23.7633115 12.3597207,23.7633115 C12.0842088,23.7633115 11.8148605,23.737373 11.553833,23.6864116 C12.0993096,25.4136082 13.6796507,26.6717763 15.5552271,26.7056488 C14.0898367,27.8728797 12.2410718,28.568946 10.2348276,28.568946 C9.88905097,28.568946 9.54697246,28.5488056 9.21259843,28.5088298 C11.1088228,29.7410595 13.3613019,30.4615385 15.7792731,30.4615385 C23.6606386,30.4615385 27.9692869,23.8344134 27.9692869,18.0858394 C27.9692869,17.8966412 27.9649724,17.707443 27.9581925,17.5219067 C28.794898,16.9085383 29.5218919,16.143201 30.0944882,15.270448 C29.3271229,15.6164976 28.5005872,15.8505541 27.6346047,15.9552235 C28.5193862,15.4175343 29.1986123,14.5649218 29.5185019,13.5493546 L29.5185019,13.5493546 Z"></path>
                        </g>
                    </g>
                </g>
            </g>
        </g>
    </g>
</svg>