<?xml version="1.0" encoding="UTF-8"?>
<svg width="41px" height="46px" viewBox="0 0 41 46" version="1.1" xmlns="http://www.w3.org/2000/svg" xmlns:xlink="http://www.w3.org/1999/xlink">
    <!-- Generator: Sketch 41.1 (35376) - http://www.bohemiancoding.com/sketch -->
    <title>scl-icn-mail</title>
    <desc>Created with Sketch.</desc>
    <defs></defs>
    <g id="Symbols" stroke="none" stroke-width="1" fill="none" fill-rule="evenodd">
        <g id="Footer" transform="translate(-789.000000, -33.000000)" stroke="#1C6FB8">
            <g id="Connected">
                <g transform="translate(775.000000, 34.000000)">
                    <g id="Group-11-Copy">
                        <g id="scl-icn-mail" transform="translate(15.000000, 0.000000)">
                            <path d="M37.0963087,34.15225 L21.3163559,43.2174722 C20.1761433,43.8725833 18.7715291,43.8725833 17.6313165,43.2174722 L1.85167087,34.15225 C0.711765354,33.4971389 0.0091511811,32.2871389 0.0091511811,30.9769167 L0.0091511811,12.8467778 C0.0091511811,11.5368611 0.711765354,10.3265556 1.85167087,9.67175 L17.6313165,0.606833333 C18.7715291,-0.0482777778 20.1761433,-0.0482777778 21.3163559,0.606833333 L37.0963087,9.67175 C38.2365213,10.3265556 38.9388283,11.5368611 38.9388283,12.8467778 L38.9388283,30.9769167 C38.9388283,32.2871389 38.2365213,33.4971389 37.0963087,34.15225 L37.0963087,34.15225 Z" id="Stroke-203" stroke-width="1.2288" stroke-linecap="round"></path>
                            <path d="M26.0070967,26.0360069 C25.927459,26.0360069 25.8478213,26.0067882 25.785665,25.9477014 L22.0601748,22.44275 C21.9300352,22.3206806 21.9235605,22.1148507 22.0459307,21.9843403 C22.1683008,21.8525312 22.372251,21.8466875 22.5036855,21.9700556 L26.2291758,25.4750069 C26.3593154,25.5970764 26.36579,25.8029062 26.2434199,25.9334167 C26.1793213,26.0015937 26.0938564,26.0360069 26.0070967,26.0360069 Z" id="Shape" stroke-width="0.6144" fill="#1C6FB8"></path>
                            <path d="M13.5713145,26.0360069 C13.4852021,26.0360069 13.3990898,26.0015937 13.3349912,25.9334167 C13.2126211,25.8029062 13.2190957,25.5970764 13.3492354,25.4750069 L17.0760205,21.9700556 C17.2068076,21.8479861 17.4120527,21.8531806 17.5337754,21.9843403 C17.6561455,22.1148507 17.6496709,22.3206806 17.5195313,22.44275 L13.7927461,25.9477014 C13.7305898,26.0067882 13.6509521,26.0360069 13.5713145,26.0360069 Z" id="Shape" stroke-width="0.6144" fill="#1C6FB8"></path>
                            <path d="M28.2104062,29.2948715 L11.3686523,29.2948715 C10.4764512,29.2948715 9.75,28.567 9.75,27.6716076 L9.75,16.6028958 C9.75,15.7075035 10.4764512,14.9796319 11.3686523,14.9796319 L28.2104062,14.9796319 C29.1026074,14.9796319 29.8290586,15.7075035 29.8290586,16.6028958 L29.8290586,27.6716076 C29.8290586,28.567 29.1026074,29.2948715 28.2104062,29.2948715 Z M11.3686523,15.6289375 C10.8332021,15.6289375 10.3974609,16.0659201 10.3974609,16.6028958 L10.3974609,27.6716076 C10.3974609,28.2085833 10.8332021,28.645566 11.3686523,28.645566 L28.2104062,28.645566 C28.7458564,28.645566 29.1815977,28.2085833 29.1815977,27.6716076 L29.1815977,16.6028958 C29.1815977,16.0659201 28.7458564,15.6289375 28.2104062,15.6289375 L11.3686523,15.6289375 Z" id="Shape" stroke-width="0.6144" fill="#1C6FB8"></path>
                            <path d="M19.7895293,23.7686319 C19.3589678,23.7686319 18.9284062,23.6251354 18.600791,23.3387917 L10.2873926,16.0659201 C10.1527207,15.9483958 10.1384766,15.7432153 10.255667,15.6075104 C10.3741523,15.4724549 10.5781025,15.4601181 10.7127744,15.5763437 L19.0261729,22.848566 C19.4399004,23.2102292 20.1391582,23.2102292 20.5522383,22.848566 L28.8552773,15.5880312 C28.9893018,15.4705069 29.193252,15.4834931 29.3123848,15.6191979 C29.4295752,15.7549028 29.4159785,15.959434 29.2813066,16.0776076 L20.9782676,23.3381424 C20.6500049,23.6251354 20.2200908,23.7686319 19.7895293,23.7686319 Z" id="Shape" stroke-width="0.6144" fill="#1C6FB8"></path>
                        </g>
                    </g>
                </g>
            </g>
        </g>
    </g>
</svg>