<?xml version="1.0" encoding="UTF-8"?>
<svg width="41px" height="46px" viewBox="0 0 41 46" version="1.1" xmlns="http://www.w3.org/2000/svg" xmlns:xlink="http://www.w3.org/1999/xlink">
    <!-- Generator: Sketch 41.1 (35376) - http://www.bohemiancoding.com/sketch -->
    <title>scl-icn-git</title>
    <desc>Created with Sketch.</desc>
    <defs></defs>
    <g id="Symbols" stroke="none" stroke-width="1" fill="none" fill-rule="evenodd">
        <g id="Footer" transform="translate(-858.000000, -33.000000)" stroke-width="1.2288" stroke="#1C6FB8">
            <g id="Connected">
                <g transform="translate(775.000000, 34.000000)">
                    <g id="Group-31-Copy" transform="translate(73.000000, 0.000000)">
                        <g id="scl-icn-git" transform="translate(11.000000, 0.000000)">
                            <path d="M37.1053063,34.1887944 L21.3256606,43.2540167 C20.185448,43.9091278 18.7808339,43.9091278 17.6406213,43.2540167 L1.86097559,34.1887944 C0.721070079,33.5339889 0.0184559055,32.3236833 0.0184559055,31.0137667 L0.0184559055,12.8833222 C0.0184559055,11.5734056 0.721070079,10.3631 1.86097559,9.7086 L17.6406213,0.643377778 C18.7808339,-0.0120388889 20.185448,-0.0120388889 21.3256606,0.643377778 L37.1053063,9.7086 C38.2455189,10.3631 38.947826,11.5734056 38.947826,12.8833222 L38.947826,31.0137667 C38.947826,32.3236833 38.2455189,33.5339889 37.1053063,34.1887944 L37.1053063,34.1887944 Z" id="Stroke-255" stroke-linecap="round"></path>
                            <path d="M19.4826189,11.0157972 C13.285611,11.0157972 8.2619811,16.0342417 8.2619811,22.2260194 C8.2619811,27.1778528 11.4768709,31.3795472 15.9360756,32.8617972 C16.4974299,32.965075 16.7019496,32.6188806 16.7019496,32.3218806 C16.7019496,32.0554361 16.6924299,31.3505194 16.6869024,30.4152139 C13.5650598,31.0932417 12.906052,28.9124917 12.906052,28.9124917 C12.3969024,27.6178528 11.6608157,27.2731861 11.6608157,27.2731861 C10.6419024,26.5777417 11.7375874,26.5917972 11.7375874,26.5917972 C12.8633669,26.6706306 13.4566583,27.7471028 13.4566583,27.7471028 C14.4577606,29.4597417 16.0825559,28.9650472 16.7225244,28.677825 C16.8244772,27.9533528 17.1140598,27.4592694 17.4349654,27.1787694 C14.9429575,26.8964361 12.3238157,25.9351583 12.3238157,21.6396583 C12.3238157,20.4159083 12.7608,19.4152139 13.4787685,18.6311583 C13.3629969,18.3472972 12.9779102,17.2084917 13.5887055,15.664825 C13.5887055,15.664825 14.5308472,15.3635472 16.6743118,16.8140194 C17.5694693,16.5652972 18.529115,16.4412417 19.4838472,16.4363528 C20.4361228,16.4412417 21.3963827,16.5652972 22.2930756,16.8140194 C24.4350047,15.3635472 25.3753039,15.664825 25.3753039,15.664825 C25.9879417,17.2084917 25.6028551,18.3472972 25.4870835,18.6311583 C26.2065874,19.4152139 26.641115,20.4159083 26.641115,21.6396583 C26.641115,25.9455472 24.0170598,26.8933806 21.5176819,27.1711306 C21.9199654,27.517325 22.2792567,28.2008528 22.2792567,29.2467694 C22.2792567,30.7452139 22.2651307,31.9539917 22.2651307,32.3218806 C22.2651307,32.6216306 22.4671937,32.970575 23.0368394,32.860575 C27.4926661,31.3752694 30.704485,27.1766306 30.704485,22.2260194 C30.704485,16.0342417 25.6802409,11.0157972 19.4826189,11.0157972 L19.4826189,11.0157972 Z"></path>
                        </g>
                    </g>
                </g>
            </g>
        </g>
    </g>
</svg>