<?xml version="1.0" encoding="UTF-8"?>
<svg width="56px" height="48px" viewBox="0 0 56 48" version="1.1" xmlns="http://www.w3.org/2000/svg" xmlns:xlink="http://www.w3.org/1999/xlink">
    <!-- Generator: Sketch 41.2 (35397) - http://www.bohemiancoding.com/sketch -->
    <title>icn-boomerang</title>
    <desc>Created with Sketch.</desc>
    <defs></defs>
    <g id="Home" stroke="none" stroke-width="1" fill="none" fill-rule="evenodd">
        <g transform="translate(-146.000000, -1131.000000)" id="Section-2" stroke-width="2">
            <g transform="translate(123.000000, 639.000000)">
                <g id="Group" transform="translate(0.000000, 172.000000)">
                    <g id="3" transform="translate(1.000000, 280.000000)">
                        <g id="icn-boomerang" transform="translate(20.000000, 33.000000)">
                            <path d="M52.3126799,21.5626251 C51.0388268,17.2601715 49.0046512,12.0046278 44.9924267,9.69798017 C41.0747094,7.23125678 35.5308348,7.92464061 31.1784117,8.84035192 C22.914049,10.5789528 14.732363,13.2290964 6.70956476,15.8646497 C4.94405391,16.4446465 3.03451236,17.9047822 3.00039621,19.9670086 C2.96655519,22.0245104 5.10706858,23.1157215 6.91192306,23.016091 C11.510175,22.7629156 16.0557396,21.762303 20.6367959,21.2868001 C22.7757961,21.0647505 28.2305285,20.4772501 32.6246339,20.7391797 C34.4003245,20.8325572 36.791344,21.066279 39.4980755,21.6170953 C45.0576326,22.7480474 49.9772367,24.8380647 53.9807946,27.7408278 C53.4686397,25.6642892 52.9164532,23.6022018 52.3126799,21.5626251 Z" id="Shape" stroke="#1C6FB8"></path>
                            <path d="M56.8348799,48.2235131 C55.9778492,43.5044734 55.1005963,38.7390228 54.0658314,34.0167871 C49.5681396,29.6964084 43.9768049,27.5246858 39.5600014,26.4350032 C42.1500776,30.2470857 44.580028,36.2250548 45.4865822,38.4306824 C47.2523682,42.7266051 48.5442423,47.2412425 50.5114237,51.4468447 C51.2835767,53.0974873 53.2525464,54.4799473 55.0276868,53.4705806 C56.8075044,52.4591295 57.1702637,50.0678585 56.8348799,48.2235131 Z" id="Shape" stroke="#F40400"></path>
                        </g>
                    </g>
                </g>
            </g>
        </g>
    </g>
</svg>