<?xml version="1.0" encoding="UTF-8"?>
<svg width="8px" height="8px" viewBox="0 0 8 8" version="1.1" xmlns="http://www.w3.org/2000/svg" xmlns:xlink="http://www.w3.org/1999/xlink">
    <!-- Generator: Sketch 42 (36781) - http://www.bohemiancoding.com/sketch -->
    <title>Shape</title>
    <desc>Created with Sketch.</desc>
    <defs></defs>
    <g id="Map" stroke="none" stroke-width="1" fill="none" fill-rule="evenodd">
        <g id="Map---Basic-(Expanded)" transform="translate(-294.000000, -264.000000)" fill="#767676">
            <g id="2-/-Basic" transform="translate(47.000000, 112.000000)">
                <g id="1---From" transform="translate(25.000000, 118.000000)">
                    <path d="M226.707511,38.0000834 L229.853411,34.8540516 C230.048863,34.6587588 230.048863,34.3418875 229.853411,34.1465947 C229.65796,33.9511351 229.341435,33.9511351 229.145984,34.1465947 L226.000083,37.2926265 L222.854016,34.1465947 C222.658565,33.9511351 222.34204,33.9511351 222.146589,34.1465947 C221.951137,34.3418875 221.951137,34.6587588 222.146589,34.8540516 L225.292656,38.0000834 L222.146589,41.1461152 C221.951137,41.341408 221.951137,41.6582793 222.146589,41.8535721 C222.244314,41.9511351 222.372392,42 222.500302,42 C222.628213,42 222.75629,41.9511351 222.854016,41.8534053 L226.000083,38.7073735 L229.145984,41.8534053 C229.24371,41.9511351 229.371787,42 229.499698,42 C229.627608,42 229.755686,41.9511351 229.853411,41.8534053 C230.048863,41.6581125 230.048863,41.3412412 229.853411,41.1459484 L226.707511,38.0000834 Z" id="Shape"></path>
                </g>
            </g>
        </g>
    </g>
</svg>