<?xml version="1.0" encoding="UTF-8"?>
<svg width="55px" height="57px" viewBox="0 0 55 57" version="1.1" xmlns="http://www.w3.org/2000/svg" xmlns:xlink="http://www.w3.org/1999/xlink">
    <!-- Generator: Sketch 41.2 (35397) - http://www.bohemiancoding.com/sketch -->
    <title>icn-privacy</title>
    <desc>Created with Sketch.</desc>
    <defs></defs>
    <g id="Home" stroke="none" stroke-width="1" fill="none" fill-rule="evenodd">
        <g transform="translate(-149.000000, -1265.000000)" id="Section-2">
            <g transform="translate(123.000000, 639.000000)">
                <g id="Group" transform="translate(0.000000, 172.000000)">
                    <g id="4" transform="translate(1.000000, 420.000000)">
                        <g id="icn-privacy" transform="translate(22.000000, 32.000000)">
                            <path d="M36.8608101,4.26674744 C36.5052108,3.91108419 35.8755523,3.91108419 35.520064,4.26674744 L31.7072308,8.0802664 C31.3374119,8.45104062 31.3374119,9.0514793 31.7072308,9.42125353 C32.0779383,9.79202775 32.678269,9.79202775 33.0479768,9.42125353 L36.1903815,6.27828369 L55.7106837,25.8020963 L49.7434807,31.7703724 C49.0730522,32.4409215 48.442505,32.4409215 47.569226,32.4409215 L39.9833297,32.4409215 C38.9639672,32.4409215 37.6943188,32.4409215 36.4682178,33.6672431 L14.1999917,55.9394738 C13.4348033,56.7047998 12.7008312,57.0965738 12.0199602,57.1031293 C11.3267582,57.1211291 10.6118936,56.7304662 9.85803644,55.9764735 L6.03576051,52.1535101 C5.27712645,51.3947396 4.8940879,50.6655244 4.89508771,49.984531 C4.89608752,49.3035375 5.28290313,48.5723223 6.04342573,47.811774 L28.3268711,25.5243212 C29.5529722,24.2979997 29.5529722,23.028123 29.5529722,22.0085772 L29.5529722,14.4213167 C29.5529722,13.900655 29.5529722,13.4672147 29.6942788,13.0594408 L30.5,12.3158968 C30.1292924,11.9451226 29.2521403,10.5347984 28.8824326,10.9055726 C27.6563315,12.1318942 27.6563315,13.4007709 27.6563315,14.4213167 L27.6563315,22.0085772 C27.6563315,22.8811244 27.6563315,23.512785 26.9859029,24.183223 L4.70245753,46.4706758 C2.43522036,48.7383207 2.43233202,51.2326301 4.69490341,53.4944973 L8.51717933,57.3184606 C9.63330123,58.4347832 10.8053014,59 12.0009638,59 C13.2337303,58.9886668 14.4113961,58.4101168 15.5407377,57.2805721 L37.8090749,35.0082302 C38.4795034,34.3376811 39.1100506,34.3376811 39.9833297,34.3376811 L47.569226,34.3376811 C48.5885884,34.3376811 49.8582368,34.3376811 51.0843378,33.1113595 L57.7219693,26.4725344 C58.0926769,26.102649 58.0926769,25.5023214 57.7219693,25.1314361 L36.8608101,4.26674744 Z" id="Shape" fill="#1C6FB8"></path>
                            <path d="M49.8750705,12 C50.0990467,12 50.3230229,11.9143043 50.4936959,11.7436304 L55.7434524,6.49384501 C56.0855159,6.15177968 56.0855159,5.59875528 55.7434524,5.25658744 C55.401389,4.9144196 54.8483676,4.91452211 54.5063041,5.25658744 L49.2565476,10.5063728 C48.9144841,10.8484381 48.9144841,11.4014626 49.2565476,11.7435279 C49.427118,11.9143043 49.6510943,12 49.8750705,12 Z" id="Shape" fill="#F40400"></path>
                            <path d="M44.5532288,6.91253354 C44.6962574,6.97169054 44.8492429,7 44.9991828,7 C45.366184,7 45.7191285,6.83170517 45.8940193,6.53923921 L47.8937252,3.2062401 C48.1417116,2.79458156 47.9406985,2.29379706 47.446834,2.0880166 C46.9519153,1.88223614 46.353913,2.04965241 46.1049893,2.46131094 L44.1062206,5.79440767 C43.8583512,6.20596858 44.0592472,6.70597214 44.5532288,6.91253354 Z" id="Shape" fill="#F40400"></path>
                            <path d="M21.4480155,34.7583615 L18.7813488,37.4326457 C18.2782572,37.9382723 18,38.6106303 18,39.3248801 C18,40.0391299 18.2782572,40.7114879 18.7813488,41.2161743 C19.2844405,41.7218009 19.9546739,42 20.6666667,42 C21.3786595,42 22.0488929,41.7218009 22.5519845,41.2161743 L25.2186512,38.5418902 C25.7217428,38.0362636 26,37.3639055 26,36.6496557 C26,35.9354059 25.7217428,35.2630479 25.2186512,34.7583615 C24.2115307,33.7472128 22.455136,33.7472128 21.4480155,34.7583615 Z M21.2951407,39.9552419 C20.9582536,40.2923611 20.3751839,40.2923611 20.0381927,39.9543016 C19.8692805,39.78663 19.7777431,39.5628589 19.7777431,39.3247756 C19.7777431,39.0866924 19.8692805,38.8628168 20.0381927,38.6943094 L20.2986423,38.4330342 L21.5555903,39.6938622 L21.2951407,39.9552419 Z M24.2222569,36.6496557 C24.2222569,36.887739 24.1307195,37.1116146 23.9618073,37.280122 L22.8124341,38.4331387 L21.5555903,37.1722062 L22.7049635,36.0191895 C22.8729384,35.8506821 23.0961065,35.7579143 23.3334375,35.7579143 C23.5707684,35.7579143 23.7938324,35.8506821 23.9619115,36.0201297 C24.1307195,36.1878014 24.2222569,36.4115725 24.2222569,36.6496557 Z" id="Shape" fill="#1C6FB8"></path>
                            <path d="M57.9114344,13.5535535 C57.706431,13.0595808 57.205637,12.8586884 56.7940683,13.1056162 L53.461006,15.1052861 C53.0493397,15.3522139 52.8819202,15.953134 53.0885832,16.4471067 C53.2344284,16.7980534 53.5285595,17 53.8343074,17 C53.9592619,17 54.0867545,16.9660299 54.2059493,16.8939897 L57.5390116,14.8943198 C57.9505803,14.647392 58.1180973,14.0475262 57.9114344,13.5535535 Z" id="Shape" fill="#F40400"></path>
                            <path d="M28.2507176,26.2507375 C27.9164275,26.5858576 27.9164275,27.1285573 28.2507176,27.4627735 L32.536439,31.7488357 C32.7044376,31.9168476 32.92385,32 33.1424591,32 C33.3618714,32 33.5812838,31.9168476 33.7492824,31.7488357 C34.0835725,31.414519 34.0835725,30.8719198 33.7492824,30.5367997 L29.4627576,26.2507375 C29.1283671,25.9164208 28.585811,25.9164208 28.2507176,26.2507375 Z" id="Shape" fill="#1C6FB8"></path>
                            <polygon id="Path-2" fill="#1C6FB8" points="28.5452001 11.3564141 35.0637154 4.71031109 57 26.624691 49.6632659 33"></polygon>
                        </g>
                    </g>
                </g>
            </g>
        </g>
    </g>
</svg>