<?xml version="1.0" encoding="UTF-8"?>
<svg width="16px" height="16px" viewBox="0 0 16 16" version="1.1" xmlns="http://www.w3.org/2000/svg" xmlns:xlink="http://www.w3.org/1999/xlink">
    <!-- Generator: Sketch 42 (36781) - http://www.bohemiancoding.com/sketch -->
    <title>icn-help copy 2</title>
    <desc>Created with Sketch.</desc>
    <defs></defs>
    <g id="Map" stroke="none" stroke-width="1" fill="none" fill-rule="evenodd">
        <g id="Map---Basic-(Expanded)" transform="translate(-949.000000, -127.000000)" fill="#1C6FB8">
            <g id="TABS" transform="translate(47.000000, 124.000000)">
                <g id="Help" transform="translate(860.000000, 3.000000)">
                    <g id="icn-help-copy-2" transform="translate(42.000000, 0.000000)">
                        <path d="M8,0 C3.5888,0 0,3.58875152 0,7.99995152 C0,12.4111515 3.5888,16 8,16 C12.4112,16 16,12.4111515 16,7.99995152 C16,3.58875152 12.4112,0 8,0 Z M8,14.5454545 C4.39083636,14.5454545 1.45454545,11.6091636 1.45454545,7.99995152 C1.45454545,4.39078788 4.39083636,1.45454545 8,1.45454545 C11.6091636,1.45454545 14.5454545,4.39078788 14.5454545,7.99995152 C14.5454545,11.6091636 11.6091636,14.5454545 8,14.5454545 Z" id="Shape"></path>
                        <path d="M8.00009697,11.1515152 C7.46550303,11.1515152 7.03059394,11.5863273 7.03059394,12.1207758 C7.03059394,12.6557091 7.46550303,13.0909091 8.00009697,13.0909091 C8.53469091,13.0909091 8.9696,12.6557091 8.9696,12.1207758 C8.9696,11.5863273 8.53469091,11.1515152 8.00009697,11.1515152 Z" id="Shape"></path>
                        <path d="M8,2.90909091 C6.52887273,2.90909091 5.33207273,4.10589091 5.33207273,5.57692121 C5.33207273,5.9785697 5.65769697,6.30419394 6.05934545,6.30419394 C6.46099394,6.30419394 6.78661818,5.9785697 6.78661818,5.57692121 C6.78661818,4.90792727 7.33090909,4.36363636 8,4.36363636 C8.66909091,4.36363636 9.2134303,4.90792727 9.2134303,5.57692121 C9.2134303,6.24601212 8.66909091,6.79030303 8,6.79030303 C7.59835152,6.79030303 7.27272727,7.11592727 7.27272727,7.51757576 L7.27272727,8.96969697 C7.27272727,9.37134545 7.59835152,9.6969697 8,9.6969697 C8.40164848,9.6969697 8.72727273,9.37134545 8.72727273,8.96969697 L8.72727273,8.14332121 C9.84591515,7.82584242 10.6679758,6.79592727 10.6679758,5.5769697 C10.6679758,4.10589091 9.47112727,2.90909091 8,2.90909091 Z" id="Shape"></path>
                    </g>
                </g>
            </g>
        </g>
    </g>
</svg>