<?xml version="1.0" encoding="UTF-8"?>
<svg width="14px" height="17px" viewBox="0 0 14 17" version="1.1" xmlns="http://www.w3.org/2000/svg" xmlns:xlink="http://www.w3.org/1999/xlink">
    <!-- Generator: Sketch 41.2 (35397) - http://www.bohemiancoding.com/sketch -->
    <title>icn-privacy</title>
    <desc>Created with Sketch.</desc>
    <defs></defs>
    <g id="Symbols" stroke="none" stroke-width="1" fill="none" fill-rule="evenodd">
        <g id="Footer" transform="translate(-858.000000, -186.000000)" fill="#1C6FB8">
            <g id="Legal">
                <g transform="translate(42.000000, 144.000000)">
                    <g id="Privacy" transform="translate(750.000000, 41.000000)">
                        <g id="icn-privacy" transform="translate(66.000000, 1.000000)">
                            <path d="M11.376,6.1635303 L11.22525,6.1635303 L11.22525,4.42180303 C11.2255,1.98359091 9.3005,0 6.934,0 C4.5675,0 2.64225,1.98359091 2.64225,4.42180303 L2.64225,6.1635303 L2.49125,6.1635303 C1.141,6.1635303 0.04225,7.29557576 0.04225,8.687 L0.04225,14.3397576 C0.04225,15.7311818 1.141,16.8632273 2.49125,16.8632273 L11.37625,16.8632273 C12.7265,16.8632273 13.82525,15.7311818 13.82525,14.3397576 L13.82525,8.687 C13.825,7.29557576 12.72625,6.1635303 11.376,6.1635303 Z M4.14225,4.42180303 C4.14225,2.83590909 5.39425,1.54545455 6.934,1.54545455 C8.47325,1.54545455 9.7255,2.83565152 9.7255,4.42180303 L9.7255,6.1635303 L4.14225,6.1635303 L4.14225,4.42180303 Z M12.325,14.3400152 C12.325,14.8793788 11.89925,15.3180303 11.376,15.3180303 L2.49125,15.3180303 C1.968,15.3180303 1.54225,14.8793788 1.54225,14.3400152 L1.54225,8.687 C1.54225,8.14763636 1.968,7.70898485 2.49125,7.70898485 L11.37625,7.70898485 C11.8995,7.70898485 12.32525,8.14763636 12.32525,8.687 L12.325,14.3400152 L12.325,14.3400152 Z" id="Shape"></path>
                            <path d="M6.9335,9.57228788 C6.10325,9.57228788 5.43,10.2656818 5.43,11.1213485 C5.43,11.6949697 5.7335,12.1946667 6.1835,12.4625455 L6.1835,14.184697 L7.6835,14.184697 L7.6835,12.4625455 C8.1335,12.1946667 8.437,11.6949697 8.437,11.1213485 C8.437,10.2656818 7.76375,9.57228788 6.9335,9.57228788 Z" id="Shape"></path>
                        </g>
                    </g>
                </g>
            </g>
        </g>
    </g>
</svg>