<?xml version="1.0" encoding="UTF-8"?>
<svg width="19px" height="16px" viewBox="0 0 19 16" version="1.1" xmlns="http://www.w3.org/2000/svg" xmlns:xlink="http://www.w3.org/1999/xlink">
    <!-- Generator: Sketch 42 (36781) - http://www.bohemiancoding.com/sketch -->
    <title>layers-icon</title>
    <desc>Created with Sketch.</desc>
    <defs></defs>
    <g id="Map" stroke="none" stroke-width="1" fill="none" fill-rule="evenodd">
        <g id="Map---Basic-(Expanded)" transform="translate(-487.000000, -350.000000)" fill="#1C6FB8">
            <g id="Map" transform="translate(0.000000, 336.000000)">
                <g id="Layers-Toggle" transform="translate(478.000000, 6.000000)">
                    <g id="layers-icon" transform="translate(9.000000, 8.000000)">
                        <path d="M18.8262364,12.2046667 L15.2462909,10.708 L10.0931455,12.6973333 C9.90763636,12.7686667 9.69069091,12.8036667 9.47374545,12.8036667 C9.25714545,12.8036667 9.04054545,12.769 8.85538182,12.6976667 L3.70085455,10.7083333 L0.121254545,12.2046667 C-0.0418,12.2723333 -0.0400727273,12.3793333 0.124709091,12.4433333 L9.17527273,15.9366667 C9.34005455,16.0003333 9.60743636,16.0003333 9.77256364,15.9366667 L18.8231273,12.4433333 C18.9875636,12.3796667 18.9892909,12.2723333 18.8262364,12.2046667 Z" id="Shape"></path>
                        <path d="M18.8262364,8.17066667 L15.2459455,6.67366667 L10.0931455,8.66233333 C9.90798182,8.734 9.69069091,8.76933333 9.47409091,8.76933333 C9.25714545,8.76933333 9.0402,8.734 8.85469091,8.66233333 L3.7012,6.67366667 L0.121254545,8.17066667 C-0.0418,8.23833333 -0.0400727273,8.345 0.124709091,8.40933333 L9.17527273,11.902 C9.34005455,11.9653333 9.60743636,11.9653333 9.77256364,11.902 L18.8231273,8.409 C18.9875636,8.34533333 18.9892909,8.23866667 18.8262364,8.17066667 Z" id="Shape"></path>
                        <path d="M0.124709091,4.375 L4.84430909,6.19666667 L9.17527273,7.86833333 C9.34005455,7.932 9.60743636,7.932 9.77256364,7.86833333 L14.1049091,6.19633333 L18.8231273,4.37533333 C18.9879091,4.31166667 18.9889455,4.205 18.8265818,4.13666667 L9.76841818,0.349333333 C9.60570909,0.281333333 9.34143636,0.281333333 9.17838182,0.349333333 L0.121254545,4.13666667 C-0.0418,4.20466667 -0.0400727273,4.31166667 0.124709091,4.375 Z" id="Shape"></path>
                    </g>
                </g>
            </g>
        </g>
    </g>
</svg>