<?xml version="1.0" encoding="UTF-8"?>
<svg width="41px" height="50px" viewBox="0 0 41 50" version="1.1" xmlns="http://www.w3.org/2000/svg" xmlns:xlink="http://www.w3.org/1999/xlink">
    <!-- Generator: Sketch 41.2 (35397) - http://www.bohemiancoding.com/sketch -->
    <title>icn-NSA</title>
    <desc>Created with Sketch.</desc>
    <defs>
        <path d="M39.5771429,0 L0.935267857,0 C0.531428571,0.129150278 0.257142857,0.528901139 0.257142857,0.981984146 L0.257142857,30.2850204 C0.257142857,39.35014 13.0990179,47.4107894 19.9752679,49.7149303 C20.0666964,49.7456803 20.1638393,49.7599983 20.2571429,49.7599983 C20.3504464,49.7599983 20.4495536,49.7456803 20.5390179,49.7149303 C27.4133036,47.4127112 40.2571429,39.3500439 40.2571429,30.2849244 L40.2571429,0.981984146 C40.2552679,0.528901139 39.9790179,0.129150278 39.5771429,0 Z" id="path-1"></path>
    </defs>
    <g id="Home" stroke="none" stroke-width="1" fill="none" fill-rule="evenodd">
        <g transform="translate(-156.000000, -991.000000)" id="Section-2">
            <g transform="translate(123.000000, 639.000000)">
                <g id="Group" transform="translate(0.000000, 172.000000)">
                    <g id="2" transform="translate(1.000000, 140.000000)">
                        <g id="icn-NSA" transform="translate(22.000000, 34.000000)">
                            <g id="Group-2" transform="translate(10.000000, 6.000000)">
                                <mask id="mask-2" fill="white">
                                    <use xlink:href="#path-1"></use>
                                </mask>
                                <g id="Shape"></g>
                                <path d="M2,6 L2,52" id="Line-Copy-2" stroke="#F40400" stroke-width="2" stroke-linecap="square" mask="url(#mask-2)"></path>
                                <path d="M6,6 L6,52" id="Line-Copy-3" stroke="#F40400" stroke-width="2" stroke-linecap="square" mask="url(#mask-2)"></path>
                                <path d="M10,6 L10,52" id="Line-Copy-4" stroke="#F40400" stroke-width="2" stroke-linecap="square" mask="url(#mask-2)"></path>
                                <path d="M14,6 L14,52" id="Line-Copy-5" stroke="#F40400" stroke-width="2" stroke-linecap="square" mask="url(#mask-2)"></path>
                                <path d="M-2,6 L-2,52" id="Line-Copy-7" stroke="#F40400" stroke-width="2" stroke-linecap="square" mask="url(#mask-2)"></path>
                                <path d="M-6,6 L-6,52" id="Line-Copy-8" stroke="#F40400" stroke-width="2" stroke-linecap="square" mask="url(#mask-2)"></path>
                                <path d="M-10,6 L-10,52" id="Line-Copy-6" stroke="#F40400" stroke-width="2" stroke-linecap="square" mask="url(#mask-2)"></path>
                                <path d="M30,6 L30,52" id="Line-Copy-15" stroke="#F40400" stroke-width="2" stroke-linecap="square" mask="url(#mask-2)"></path>
                                <path d="M34,6 L34,52" id="Line-Copy-14" stroke="#F40400" stroke-width="2" stroke-linecap="square" mask="url(#mask-2)"></path>
                                <path d="M38,6 L38,52" id="Line-Copy-13" stroke="#F40400" stroke-width="2" stroke-linecap="square" mask="url(#mask-2)"></path>
                                <path d="M42,6 L42,52" id="Line-Copy-12" stroke="#F40400" stroke-width="2" stroke-linecap="square" mask="url(#mask-2)"></path>
                                <path d="M26,6 L26,52" id="Line-Copy-11" stroke="#F40400" stroke-width="2" stroke-linecap="square" mask="url(#mask-2)"></path>
                                <path d="M22,6 L22,52" id="Line-Copy-10" stroke="#F40400" stroke-width="2" stroke-linecap="square" mask="url(#mask-2)"></path>
                                <path d="M18,6 L18,52" id="Line-Copy-9" stroke="#F40400" stroke-width="2" stroke-linecap="square" mask="url(#mask-2)"></path>
                                <rect id="Rectangle-2" fill="#1C6FB8" mask="url(#mask-2)" x="3.55271368e-15" y="0" width="41" height="9.94999981"></rect>
                            </g>
                        </g>
                    </g>
                </g>
            </g>
        </g>
    </g>
</svg>