<?xml version="1.0" encoding="UTF-8"?>
<svg width="22px" height="30px" viewBox="0 0 22 30" version="1.1" xmlns="http://www.w3.org/2000/svg" xmlns:xlink="http://www.w3.org/1999/xlink">
    <!-- Generator: Sketch 42 (36781) - http://www.bohemiancoding.com/sketch -->
    <title>electric-tower</title>
    <desc>Created with Sketch.</desc>
    <defs></defs>
    <g id="Map" stroke="none" stroke-width="1" fill="none" fill-rule="evenodd">
        <g id="Map---Quick" transform="translate(-576.000000, -251.000000)" fill="#1C6FB8">
            <g id="1-/-QUICK" transform="translate(43.000000, 106.000000)">
                <g id="4---ISP" transform="translate(480.000000, 131.000000)">
                    <g id="electric-tower" transform="translate(53.000000, 14.000000)">
                        <path d="M21.42965,7.99998047 L13.0859056,7.99998047 L13.0859056,5.50001953 L15.6933333,5.50001953 L15.6933333,6 C15.6933333,6.3 15.9019056,6.49998047 16.2147944,6.49998047 C16.5276833,6.49998047 16.7362556,6.3 16.7362556,6 L16.7362556,5.50001953 L18.3007,5.50001953 C18.6135889,5.50001953 18.8221611,5.30003906 18.8221611,5.00003906 L18.8221611,3 C18.8221611,2.7 18.6135889,2.50001953 18.3007,2.50001953 L13.0859056,2.50001953 L13.0859056,1.69998047 C13.0859056,0.75 12.3036833,0 11.3128889,0 L10.6871111,0 C9.69631667,0 8.91409444,0.75 8.91409444,1.69998047 L8.91409444,2.49996094 L3.6993,2.49996094 C3.38641111,2.49996094 3.17783889,2.69994141 3.17783889,2.99994141 L3.17783889,4.99992188 C3.17783889,5.29992188 3.38641111,5.49990234 3.6993,5.49990234 L5.26374444,5.49990234 L5.26374444,5.99988281 C5.26374444,6.29988281 5.47231667,6.49986328 5.78520556,6.49986328 C6.09809444,6.49986328 6.30666667,6.29988281 6.30666667,5.99988281 L6.30666667,5.49990234 L8.91409444,5.49990234 L8.91409444,7.99992188 L0.57035,7.99992188 C0.257461111,7.99992188 0.0488888889,8.19990234 0.0488888889,8.49990234 L0.0488888889,10.5 C0.0488888889,10.8 0.257461111,10.9999805 0.57035,10.9999805 L1.61333333,10.9999805 L1.61333333,11.4999609 C1.61333333,11.7999609 1.82190556,11.9999414 2.13479444,11.9999414 C2.44768333,11.9999414 2.65625556,11.7999609 2.65625556,11.4999609 L2.65625556,10.9999805 L5.26368333,10.9999805 L5.26368333,11.4999609 C5.26368333,11.7999609 5.47225556,11.9999414 5.78514444,11.9999414 C6.09803333,11.9999414 6.30660556,11.7999609 6.30660556,11.4999609 L6.30660556,10.9999805 L8.91403333,10.9999805 L8.91403333,28.9999805 L7.87111111,28.9999805 C7.55822222,28.9999805 7.34965,29.1999609 7.34965,29.4999609 C7.34965,29.7999609 7.55822222,30 7.87111111,30 L9.43555556,30 L12.5644444,30 L14.1288889,30 C14.4417778,30 14.65035,29.8000195 14.65035,29.5000195 C14.65035,29.2000195 14.4417778,29.0000391 14.1288889,29.0000391 L13.0859056,29.0000391 L13.0859056,11.0000391 L15.6933333,11.0000391 L15.6933333,11.5000195 C15.6933333,11.8000195 15.9019056,12 16.2147944,12 C16.5276833,12 16.7362556,11.8000195 16.7362556,11.5000195 L16.7362556,11.0000391 L19.3436833,11.0000391 L19.3436833,11.5000195 C19.3436833,11.8000195 19.5522556,12 19.8651444,12 C20.1780333,12 20.3866056,11.8000195 20.3866056,11.5000195 L20.3866056,11.0000391 L21.4295889,11.0000391 C21.7424778,11.0000391 21.95105,10.8000586 21.95105,10.5000586 L21.95105,8.50007812 C21.9511111,8.20001953 21.7425389,7.99998047 21.42965,7.99998047 Z M9.95701667,1.69998047 C9.95701667,1.29996094 10.2699056,0.999960937 10.6871111,0.999960937 L11.3128889,0.999960937 C11.7300944,0.999960937 12.0429833,1.29996094 12.0429833,1.69998047 L12.0429833,2.49996094 L9.95707778,2.49996094 L9.95707778,1.69998047 L9.95701667,1.69998047 Z M4.22076111,3.49998047 L9.43555556,3.49998047 L12.5644444,3.49998047 L17.7792389,3.49998047 L17.7792389,4.5 L12.5644444,4.5 L9.43555556,4.5 L4.22076111,4.5 L4.22076111,3.49998047 L4.22076111,3.49998047 Z M9.95701667,5.50001953 L12.0429222,5.50001953 L12.0429222,8.00003906 L9.95701667,8.00003906 L9.95701667,5.50001953 Z M12.0429833,28.9999805 L9.95707778,28.9999805 L9.95707778,27.9999609 L10.4785389,27.9999609 C10.7914278,27.9999609 11,27.7999805 11,27.4999805 C11,27.1999805 10.7914278,27 10.4785389,27 L9.95707778,27 L9.95707778,26.5000195 L10.4785389,26.5000195 C10.7914278,26.5000195 11,26.3000391 11,26.0000391 C11,25.7000391 10.7914278,25.5000586 10.4785389,25.5000586 L9.95707778,25.5000586 L9.95707778,10.9999805 L12.0429833,10.9999805 L12.0429833,28.9999805 Z M20.9081278,10.0000195 L12.5644444,10.0000195 L9.43555556,10.0000195 L1.09187222,10.0000195 L1.09187222,9 L9.43555556,9 L12.5644444,9 L20.9081278,9 L20.9081278,10.0000195 L20.9081278,10.0000195 Z" id="Shape"></path>
                    </g>
                </g>
            </g>
        </g>
    </g>
</svg>