<?xml version="1.0" encoding="UTF-8"?>
<svg width="30px" height="30px" viewBox="0 0 30 30" version="1.1" xmlns="http://www.w3.org/2000/svg" xmlns:xlink="http://www.w3.org/1999/xlink">
    <!-- Generator: Sketch 42 (36781) - http://www.bohemiancoding.com/sketch -->
    <title>clock</title>
    <desc>Created with Sketch.</desc>
    <defs></defs>
    <g id="Map" stroke="none" stroke-width="1" fill="none" fill-rule="evenodd">
        <g id="Map---Quick" transform="translate(-116.000000, -251.000000)" fill="#1C6FB8">
            <g id="1-/-QUICK" transform="translate(43.000000, 106.000000)">
                <g id="1---latest" transform="translate(24.000000, 131.000000)">
                    <g id="clock" transform="translate(49.000000, 14.000000)">
                        <path d="M25.606582,4.39335938 C22.773457,1.56023438 19.0066992,0 15,0 C10.9933008,0 7.22654297,1.56023438 4.39347656,4.39335938 C1.56023438,7.22654297 0,10.9933594 0,15 C0,19.0066406 1.56023438,22.773457 4.39347656,25.6066406 C7.22654297,28.4397656 10.9933008,30 15,30 C19.0066992,30 22.773457,28.4397656 25.606582,25.6066406 C28.4397656,22.773457 30,19.0066406 30,15 C30,10.9933594 28.4397656,7.22654297 25.606582,4.39335938 Z M15,28.8048047 C7.38802734,28.8048047 1.19519531,22.6120312 1.19519531,15 C1.19519531,7.38796875 7.38802734,1.19519531 15,1.19519531 C22.6119727,1.19519531 28.8048047,7.38802734 28.8048047,15 C28.8048047,22.6119727 22.6119727,28.8048047 15,28.8048047 Z" id="Shape"></path>
                        <path d="M15,2.33068359 C8.01410156,2.33068359 2.33068359,8.01410156 2.33068359,15 C2.33068359,21.9858984 8.01410156,27.6693164 15,27.6693164 C21.9858984,27.6693164 27.6693164,21.9858984 27.6693164,15 C27.6693164,8.01410156 21.9858984,2.33068359 15,2.33068359 Z M15,26.4741211 C8.67316406,26.4741211 3.52587891,21.3268359 3.52587891,15 C3.52587891,8.67316406 8.67316406,3.52587891 15,3.52587891 C21.3268359,3.52587891 26.4741211,8.67316406 26.4741211,15 C26.4741211,21.3268359 21.3268359,26.4741211 15,26.4741211 Z" id="Shape"></path>
                        <path d="M18.9044531,18.0592969 L15.5975977,14.7525 L15.5975977,7.88841797 C15.5975977,7.55835938 15.33,7.29082031 15,7.29082031 C14.67,7.29082031 14.4024023,7.55835938 14.4024023,7.88841797 L14.4024023,15 C14.4024023,15.1584961 14.4653906,15.3104883 14.5774219,15.4225781 L18.0593555,18.9045117 C18.1760742,19.0212305 18.3289453,19.0795313 18.4819336,19.0795313 C18.6348633,19.0795313 18.787793,19.0212305 18.9045117,18.9045117 C19.137832,18.6710742 19.137832,18.2926758 18.9044531,18.0592969 Z" id="Shape"></path>
                        <path d="M15,4.48207031 C14.67,4.48207031 14.4024023,4.74960938 14.4024023,5.07966797 L14.4024023,5.73703125 C14.4024023,6.06708984 14.67,6.33462891 15,6.33462891 C15.33,6.33462891 15.5975977,6.06708984 15.5975977,5.73703125 L15.5975977,5.07966797 C15.5975977,4.74960938 15.33,4.48207031 15,4.48207031 Z" id="Shape"></path>
                        <path d="M15,23.6653125 C14.67,23.6653125 14.4024023,23.9328516 14.4024023,24.2629102 L14.4024023,24.9202734 C14.4024023,25.250332 14.67,25.5178711 15,25.5178711 C15.33,25.5178711 15.5975977,25.250332 15.5975977,24.9202734 L15.5975977,24.2629102 C15.5975977,23.9329102 15.33,23.6653125 15,23.6653125 Z" id="Shape"></path>
                        <path d="M24.920332,14.4024023 L24.2629687,14.4024023 C23.9329687,14.4024023 23.6653711,14.6699414 23.6653711,15 C23.6653711,15.3300586 23.9329687,15.5975977 24.2629687,15.5975977 L24.920332,15.5975977 C25.250332,15.5975977 25.5179297,15.3300586 25.5179297,15 C25.5179297,14.6699414 25.250332,14.4024023 24.920332,14.4024023 Z" id="Shape"></path>
                        <path d="M5.73703125,14.4024023 L5.07966797,14.4024023 C4.74966797,14.4024023 4.48207031,14.6699414 4.48207031,15 C4.48207031,15.3300586 4.74966797,15.5975977 5.07966797,15.5975977 L5.73703125,15.5975977 C6.06703125,15.5975977 6.33462891,15.3300586 6.33462891,15 C6.3346875,14.6699414 6.06703125,14.4024023 5.73703125,14.4024023 Z" id="Shape"></path>
                    </g>
                </g>
            </g>
        </g>
    </g>
</svg>