<?xml version="1.0" encoding="UTF-8"?>
<svg width="26px" height="36px" viewBox="0 0 26 36" version="1.1" xmlns="http://www.w3.org/2000/svg" xmlns:xlink="http://www.w3.org/1999/xlink">
    <!-- Generator: Sketch 42 (36781) - http://www.bohemiancoding.com/sketch -->
    <title>flag</title>
    <desc>Created with Sketch.</desc>
    <defs></defs>
    <g id="Map" stroke="none" stroke-width="1" fill="none" fill-rule="evenodd">
        <g id="Map---Quick" transform="translate(-885.000000, -248.000000)" fill="#1C6FB8">
            <g id="1-/-QUICK" transform="translate(43.000000, 106.000000)">
                <g id="6---Country" transform="translate(785.000000, 131.000000)">
                    <g id="flag" transform="translate(57.000000, 11.000000)">
                        <path d="M25.6283182,1.8876 C25.3570909,1.7766 18.9161818,-0.7836 13.9046818,1.9146 C9.93377273,4.0548 2.96340909,2.4492 1.18181818,1.9848 L1.18181818,0.6 C1.18181818,0.2682 0.917681818,0 0.590909091,0 C0.264136364,0 0,0.2682 0,0.6 L0,2.4 C0,2.4084 0.00413636364,2.4156 0.00472727273,2.424 C0.00472727273,2.4312 0,2.4372 0,2.4444 L0,19.8 L0,20.4444 L0,35.4 C0,35.7318 0.264136364,36 0.590909091,36 C0.917681818,36 1.18181818,35.7318 1.18181818,35.4 L1.18181818,21.225 C2.52495455,21.5652 5.45231818,22.2042 8.49018182,22.2042 C10.5920455,22.2042 12.7447273,21.8976 14.4589545,20.9748 C18.9805909,18.5382 25.1284091,20.9772 25.1898636,21.0018 C25.3724545,21.0762 25.5780909,21.0534 25.7405909,20.9406 C25.9025,20.8296 26,20.6436 26,20.4444 L26,2.4444 C26,2.199 25.8528636,1.9788 25.6283182,1.8876 Z M24.8181818,19.599 C22.8918182,18.9762 17.9364545,17.7414 13.9046818,19.914 C9.93436364,22.0536 2.96636364,20.4492 1.18181818,19.9848 L1.18181818,19.8 L1.18181818,3.225 C3.45859091,3.8016 10.2705909,5.2308 14.4589545,2.9748 C18.3388636,0.885 23.4159545,2.3838 24.8181818,2.8662 L24.8181818,19.599 Z" id="Shape"></path>
                    </g>
                </g>
            </g>
        </g>
    </g>
</svg>