<?xml version="1.0" encoding="UTF-8"?>
<svg width="30px" height="30px" viewBox="0 0 30 30" version="1.1" xmlns="http://www.w3.org/2000/svg" xmlns:xlink="http://www.w3.org/1999/xlink">
    <!-- Generator: Sketch 42 (36781) - http://www.bohemiancoding.com/sketch -->
    <title>boomerang</title>
    <desc>Created with Sketch.</desc>
    <defs></defs>
    <g id="Map" stroke="none" stroke-width="1" fill="none" fill-rule="evenodd">
        <g id="Map---Quick" transform="translate(-422.000000, -254.000000)" fill="#1C6FB8">
            <g id="1-/-QUICK" transform="translate(43.000000, 106.000000)">
                <g id="3---Boomerang" transform="translate(328.000000, 131.000000)">
                    <g id="boomerang" transform="translate(51.000000, 17.000000)">
                        <path d="M27.6357422,0 L9.07535156,0 C4.07121094,0 0,4.07121094 0,9.07535156 L0,27.6357422 C0,28.9393945 1.06060547,30 2.36425781,30 C4.18388672,30 5.72636719,28.6980469 6.03193359,26.9041992 L8.57449219,11.9773242 C8.87074219,10.2380859 10.2383203,8.87056641 11.9773828,8.57443359 L26.9042578,6.031875 C28.6980469,5.72630859 30,4.18388672 30,2.36425781 C30,1.06060547 28.9393945,0 27.6357422,0 Z M4.85361328,26.7035742 C4.64625,27.9210938 3.59935547,28.8047461 2.36425781,28.8047461 C1.71960937,28.8047461 1.19519531,28.280332 1.19519531,27.6356836 L1.19519531,25.0899609 L5.12835937,25.0899609 L4.85361328,26.7035742 Z M5.33203125,23.8948828 L1.19519531,23.8948828 L1.19519531,22.9297266 L5.49638672,22.9297266 L5.33203125,23.8948828 Z M21.7344727,5.7 L11.7766992,7.39611328 C9.53789062,7.77738281 7.7775,9.53783203 7.39611328,11.7766992 L5.7,21.7344727 L1.19519531,21.7344727 L1.19519531,9.07535156 C1.19519531,4.73021484 4.73015625,1.19519531 9.07535156,1.19519531 L21.7344727,1.19519531 L21.7344727,5.7 Z M23.8948242,5.33203125 L22.929668,5.49638672 L22.929668,1.19519531 L23.8948242,1.19519531 L23.8948242,5.33203125 Z M26.7035742,4.85361328 L25.0900781,5.12847656 L25.0900781,1.19519531 L27.6358008,1.19519531 C28.2803906,1.19519531 28.8048047,1.71960937 28.8048047,2.36425781 C28.8048047,3.59935547 27.9210938,4.64625 26.7035742,4.85361328 Z" id="Shape"></path>
                        <path d="M13.8215625,1.89855469 L13.2978516,1.89855469 C12.9678516,1.89855469 12.7002539,2.16615234 12.7002539,2.49615234 C12.7002539,2.82615234 12.9678516,3.09375 13.2978516,3.09375 L13.8215625,3.09375 C14.1515625,3.09375 14.4191602,2.82615234 14.4191602,2.49615234 C14.4191602,2.16615234 14.1516211,1.89855469 13.8215625,1.89855469 Z" id="Shape"></path>
                        <path d="M20.4336328,1.89855469 L16.3747852,1.89855469 C16.0447852,1.89855469 15.7771875,2.16615234 15.7771875,2.49615234 C15.7771875,2.82615234 16.0447852,3.09375 16.3747852,3.09375 L20.4336328,3.09375 C20.7636328,3.09375 21.0312305,2.82615234 21.0312305,2.49615234 C21.0312305,2.16615234 20.7636328,1.89855469 20.4336328,1.89855469 Z" id="Shape"></path>
                    </g>
                </g>
            </g>
        </g>
    </g>
</svg>