<?xml version="1.0" encoding="UTF-8"?>
<svg width="36px" height="36px" viewBox="0 0 36 36" version="1.1" xmlns="http://www.w3.org/2000/svg" xmlns:xlink="http://www.w3.org/1999/xlink">
    <!-- Generator: Sketch 42 (36781) - http://www.bohemiancoding.com/sketch -->
    <title>placeholder</title>
    <desc>Created with Sketch.</desc>
    <defs></defs>
    <g id="Map" stroke="none" stroke-width="1" fill="none" fill-rule="evenodd">
        <g id="Map---Quick" transform="translate(-721.000000, -248.000000)" fill="#1C6FB8">
            <g id="1-/-QUICK" transform="translate(43.000000, 106.000000)">
                <g id="5---City" transform="translate(632.000000, 131.000000)">
                    <g id="placeholder" transform="translate(46.000000, 11.000000)">
                        <path d="M18,15.6 C20.316,15.6 22.2,13.7154 22.2,11.4 C22.2,9.0846 20.316,7.2 18,7.2 C15.684,7.2 13.8,9.0846 13.8,11.4 C13.8,13.7154 15.684,15.6 18,15.6 Z M18,8.4 C19.6542,8.4 21,9.7458 21,11.4 C21,13.0542 19.6542,14.4 18,14.4 C16.3458,14.4 15,13.0542 15,11.4 C15,9.7458 16.3458,8.4 18,8.4 Z" id="Shape"></path>
                        <path d="M17.8938,32.8542 L27.0984,19.56 C30.5508,14.9574 30.0516,7.392 26.0298,3.3708 C23.8566,1.197 20.967,0 17.8938,0 C14.8206,0 11.931,1.197 9.7578,3.3702 C5.736,7.3914 5.2368,14.9568 8.6754,19.5414 L17.8938,32.8542 Z M10.6062,4.2186 C12.5532,2.2722 15.141,1.2 17.8938,1.2 C20.6466,1.2 23.2344,2.2722 25.1814,4.2186 C28.8114,7.848 29.2584,14.6808 26.1252,18.858 L17.8938,30.7458 L9.6492,18.84 C6.5292,14.6808 6.9768,7.848 10.6062,4.2186 Z" id="Shape"></path>
                        <path d="M25.2702,25.8042 C24.9402,25.764 24.6426,26.0004 24.6042,26.3298 C24.5658,26.6592 24.801,26.9574 25.1298,26.9958 C31.4394,27.7386 34.8,29.7402 34.8,30.9 C34.8,32.5284 28.4088,34.8 18,34.8 C7.5912,34.8 1.2,32.5284 1.2,30.9 C1.2,29.7402 4.5606,27.7386 10.8702,26.9958 C11.199,26.9574 11.4342,26.6586 11.3958,26.3298 C11.3568,26.0004 11.0592,25.7628 10.7298,25.8042 C4.4124,26.5482 0,28.6434 0,30.9 C0,33.4344 6.183,36 18,36 C29.817,36 36,33.4344 36,30.9 C36,28.6434 31.5876,26.5482 25.2702,25.8042 Z" id="Shape"></path>
                    </g>
                </g>
            </g>
        </g>
    </g>
</svg>