<?xml version="1.0" encoding="UTF-8" standalone="no"?>
<svg width="22px" height="16px" viewBox="0 0 22 16" version="1.1" xmlns="http://www.w3.org/2000/svg" xmlns:xlink="http://www.w3.org/1999/xlink">
    <!-- Generator: Sketch 41.2 (35397) - http://www.bohemiancoding.com/sketch -->
    <title>scl-icn-mail</title>
    <desc>Created with Sketch.</desc>
    <defs></defs>
    <g id="Symbols" stroke="none" stroke-width="1" fill="none" fill-rule="evenodd">
        <g id="Footer" transform="translate(-626.000000, -72.000000)" stroke-width="0.6144" stroke="#1C6FB8" fill="#1C6FB8">
            <g id="Connected">
                <g transform="translate(611.000000, 54.000000)">
                    <g id="Email">
                        <g id="scl-icn-mail">
                            <path d="M32.0070967,30.0360069 C31.927459,30.0360069 31.8478213,30.0067882 31.785665,29.9477014 L28.0601748,26.44275 C27.9300352,26.3206806 27.9235605,26.1148507 28.0459307,25.9843403 C28.1683008,25.8525312 28.372251,25.8466875 28.5036855,25.9700556 L32.2291758,29.4750069 C32.3593154,29.5970764 32.36579,29.8029062 32.2434199,29.9334167 C32.1793213,30.0015937 32.0938564,30.0360069 32.0070967,30.0360069 Z" id="Shape"></path>
                            <path d="M19.5713145,30.0360069 C19.4852021,30.0360069 19.3990898,30.0015937 19.3349912,29.9334167 C19.2126211,29.8029062 19.2190957,29.5970764 19.3492354,29.4750069 L23.0760205,25.9700556 C23.2068076,25.8479861 23.4120527,25.8531806 23.5337754,25.9843403 C23.6561455,26.1148507 23.6496709,26.3206806 23.5195313,26.44275 L19.7927461,29.9477014 C19.7305898,30.0067882 19.6509521,30.0360069 19.5713145,30.0360069 Z" id="Shape"></path>
                            <path d="M34.2104062,33.2948715 L17.3686523,33.2948715 C16.4764512,33.2948715 15.75,32.567 15.75,31.6716076 L15.75,20.6028958 C15.75,19.7075035 16.4764512,18.9796319 17.3686523,18.9796319 L34.2104062,18.9796319 C35.1026074,18.9796319 35.8290586,19.7075035 35.8290586,20.6028958 L35.8290586,31.6716076 C35.8290586,32.567 35.1026074,33.2948715 34.2104062,33.2948715 Z M17.3686523,19.6289375 C16.8332021,19.6289375 16.3974609,20.0659201 16.3974609,20.6028958 L16.3974609,31.6716076 C16.3974609,32.2085833 16.8332021,32.645566 17.3686523,32.645566 L34.2104062,32.645566 C34.7458564,32.645566 35.1815977,32.2085833 35.1815977,31.6716076 L35.1815977,20.6028958 C35.1815977,20.0659201 34.7458564,19.6289375 34.2104062,19.6289375 L17.3686523,19.6289375 Z" id="Shape"></path>
                            <path d="M25.7895293,27.7686319 C25.3589678,27.7686319 24.9284062,27.6251354 24.600791,27.3387917 L16.2873926,20.0659201 C16.1527207,19.9483958 16.1384766,19.7432153 16.255667,19.6075104 C16.3741523,19.4724549 16.5781025,19.4601181 16.7127744,19.5763437 L25.0261729,26.848566 C25.4399004,27.2102292 26.1391582,27.2102292 26.5522383,26.848566 L34.8552773,19.5880312 C34.9893018,19.4705069 35.193252,19.4834931 35.3123848,19.6191979 C35.4295752,19.7549028 35.4159785,19.959434 35.2813066,20.0776076 L26.9782676,27.3381424 C26.6500049,27.6251354 26.2200908,27.7686319 25.7895293,27.7686319 Z" id="Shape"></path>
                        </g>
                    </g>
                </g>
            </g>
        </g>
    </g>
</svg>