<?xml version="1.0" encoding="UTF-8" standalone="no"?>
<svg width="26px" height="20px" viewBox="0 0 26 20" version="1.1" xmlns="http://www.w3.org/2000/svg" xmlns:xlink="http://www.w3.org/1999/xlink">
    <!-- Generator: Sketch 41.2 (35397) - http://www.bohemiancoding.com/sketch -->
    <title>scl-icn-twitter</title>
    <desc>Created with Sketch.</desc>
    <defs></defs>
    <g id="Symbols" stroke="none" stroke-width="1" fill="none" fill-rule="evenodd">
        <g id="Footer" transform="translate(-877.000000, -71.000000)" stroke-width="1.2288" stroke="#1C6FB8">
            <g id="Connected">
                <g transform="translate(611.000000, 54.000000)">
                    <g id="Twitter" transform="translate(258.000000, 5.000000)">
                        <path d="M31.5185019,13.5493546 C30.6898091,14.047068 29.7742097,14.409291 28.7960501,14.6036769 C28.0166658,13.7583881 26.9022912,13.2307692 25.6692676,13.2307692 C23.3049196,13.2307692 21.3868145,15.1782902 21.3868145,17.5804971 C21.3868145,17.9216642 21.423796,18.2527611 21.4971425,18.5713464 C17.9370606,18.389472 14.7803848,16.659529 12.6659698,14.0247914 C12.2973879,14.6692859 12.0865936,15.4175343 12.0865936,16.2139978 C12.0865936,17.7223958 12.8428645,19.054107 13.9923715,19.8343971 C13.2912647,19.813036 12.6292965,19.6152933 12.0508449,19.2918254 L12.0508449,19.3452282 C12.0508449,21.4535676 13.5276378,23.2121954 15.488888,23.6104272 C15.1295514,23.7126552 14.7511078,23.7633115 14.3597207,23.7633115 C14.0842088,23.7633115 13.8148605,23.737373 13.553833,23.6864116 C14.0993096,25.4136082 15.6796507,26.6717763 17.5552271,26.7056488 C16.0898367,27.8728797 14.2410718,28.568946 12.2348276,28.568946 C11.889051,28.568946 11.5469725,28.5488056 11.2125984,28.5088298 C13.1088228,29.7410595 15.3613019,30.4615385 17.7792731,30.4615385 C25.6606386,30.4615385 29.9692869,23.8344134 29.9692869,18.0858394 C29.9692869,17.8966412 29.9649724,17.707443 29.9581925,17.5219067 C30.794898,16.9085383 31.5218919,16.143201 32.0944882,15.270448 C31.3271229,15.6164976 30.5005872,15.8505541 29.6346047,15.9552235 C30.5193862,15.4175343 31.1986123,14.5649218 31.5185019,13.5493546 L31.5185019,13.5493546 Z" id="scl-icn-twitter"></path>
                    </g>
                </g>
            </g>
        </g>
    </g>
</svg>