<?xml version="1.0" encoding="utf-8"?>
<!-- Generator: Adobe Illustrator 19.0.0, SVG Export Plug-In . SVG Version: 6.00 Build 0)  -->
<svg version="1.1" id="Layer_1" xmlns="http://www.w3.org/2000/svg" xmlns:xlink="http://www.w3.org/1999/xlink" x="0px" y="0px"
	 viewBox="0 0 26 26" enable-background="new 0 0 26 26" xml:space="preserve">
<path id="XMLID_22_" fill="none" stroke="#1C6FB8" stroke-width="1.5" stroke-miterlimit="10" d="M12.9993858,2.0672352
	c-6.1970062,0-11.2206345,5.0184441-11.2206345,11.2102203c0,4.9518404,3.2148895,9.1535311,7.6740799,10.6357813
	c0.5613556,0.1032791,0.7658844-0.2429199,0.7658844-0.5399208c0-0.2664394-0.0095215-0.9713593-0.0150452-1.9066601
	c-3.1218414,0.6780205-3.7808533-1.5027294-3.7808533-1.5027294c-0.5091476-1.2946301-1.2452316-1.6393013-1.2452316-1.6393013
	c-1.0189133-0.6954498,0.076767-0.6813889,0.076767-0.6813889c1.1257782,0.0788288,1.7190704,1.1553097,1.7190704,1.1553097
	c1.0011063,1.7126293,2.6258926,1.2179394,3.2658615,0.9307194c0.1019592-0.7244701,0.3915405-1.2185593,0.7124481-1.4990597
	C8.4597206,17.947876,5.84058,16.9865952,5.84058,12.6910954c0-1.2237492,0.4369888-2.2244434,1.154953-3.0084991
	C6.8797646,9.398735,6.4946785,8.2599306,7.1054726,6.7162638c0,0,0.9421387-0.3012772,3.0856094,1.1491947
	c0.8951569-0.2487221,1.8547974-0.3727779,2.8095398-0.3776665c0.9522552,0.0048885,1.9125214,0.1289444,2.8092194,0.3776665
	c2.141922-1.4504719,3.0822296-1.1491947,3.0822296-1.1491947c0.6126404,1.5436668,0.2275391,2.6824713,0.1117706,2.9663324
	c0.7195129,0.7840557,1.1540375,1.78475,1.1540375,3.0084991c0,4.305891-2.624054,5.2537193-5.1234283,5.5314713
	c0.4022675,0.346199,0.7615662,1.0297298,0.7615662,2.0756397c0,1.4984493-0.0141296,2.7072201-0.0141296,3.0751095
	c0,0.2997494,0.2020721,0.6487007,0.7717133,0.5387001c4.4558411-1.4853096,7.6676483-5.6839504,7.6676483-10.6345606
	C24.2212486,7.0856791,19.1970024,2.0672352,12.9993858,2.0672352z"/>
<g id="XMLID_1_">
</g>
<g id="XMLID_2_">
</g>
<g id="XMLID_3_">
</g>
<g id="XMLID_4_">
</g>
<g id="XMLID_5_">
</g>
<g id="XMLID_6_">
</g>
</svg>
