<?xml version="1.0" encoding="utf-8"?>
<!-- Generator: Adobe Illustrator 19.0.0, SVG Export Plug-In . SVG Version: 6.00 Build 0)  -->
<svg version="1.1" id="Layer_1" xmlns="http://www.w3.org/2000/svg" xmlns:xlink="http://www.w3.org/1999/xlink" x="0px" y="0px"
	 viewBox="0 0 26 26" enable-background="new 0 0 26 26" xml:space="preserve">
<path id="XMLID_4_" fill="none" stroke="#1C6FB8" stroke-miterlimit="10" d="M22.5228882,6.4819336
	c-0.1191406-0.1356812-0.3231201-0.1486816-0.4571533-0.031189l-8.3030396,7.2605591
	c-0.4130249,0.3616333-1.1123047,0.3616333-1.526062,0L3.9232788,6.4390869
	C3.7885742,6.322876,3.5846558,6.3352051,3.4661255,6.4702148C3.348938,6.605957,3.3632202,6.8111572,3.4978638,6.9286499
	l6.7694702,5.9221802l-3.7076416,3.4869385c-0.130127,0.1220703-0.1365967,0.3278809-0.0142212,0.458374
	c0.0640869,0.0681763,0.1502075,0.1026001,0.2363281,0.1026001c0.0796509,0,0.1593018-0.0292358,0.2214355-0.0883179
	l3.7268066-3.5049438c0.0103149-0.0096436,0.0073853-0.0251465,0.0161133-0.0357666l1.0651245,0.9318237
	C12.138916,14.487854,12.569458,14.6313477,13,14.6313477s0.8604736-0.1434937,1.1887207-0.430481l1.0655518-0.9317627
	c0.0088501,0.0108032,0.0059204,0.0265503,0.0163574,0.036377l3.7255249,3.5049438
	c0.0621338,0.059082,0.1417847,0.0883179,0.2214355,0.0883179c0.086731,0,0.1722412-0.0344238,0.2363281-0.1026001
	c0.1223755-0.1304932,0.1159058-0.3363037-0.0142822-0.458374l-3.706604-3.4873047l6.758728-5.9100952
	C22.6264648,6.8221436,22.6400757,6.6176147,22.5228882,6.4819336z"/>
<path id="XMLID_2_" fill="none" stroke="#1C6FB8" stroke-width="1.5" stroke-miterlimit="10" d="M21,20H5
	c-1.1045694,0-2-0.8954296-2-2V8c0-1.1045694,0.8954306-2,2-2h16c1.1045704,0,2,0.8954306,2,2v10C23,19.1045704,22.1045704,20,21,20
	z"/>
</svg>
