<?xml version="1.0" encoding="utf-8"?>
<!-- Generator: Adobe Illustrator 19.0.0, SVG Export Plug-In . SVG Version: 6.00 Build 0)  -->
<svg version="1.1" id="Layer_1" xmlns="http://www.w3.org/2000/svg" xmlns:xlink="http://www.w3.org/1999/xlink" x="0px" y="0px"
	 viewBox="0 0 26 26" enable-background="new 0 0 26 26" xml:space="preserve">
<path id="XMLID_49_" fill="none" stroke="#1C6FB8" stroke-width="1.5" stroke-miterlimit="10" d="M22.8892288,5.0529079
	c-0.7937737,0.4767346-1.6707706,0.8236895-2.6076927,1.0098839c-0.7465363-0.8096609-1.8139458-1.315042-2.9950066-1.315042
	c-2.2646933,0-4.1019373,1.8654337-4.1019373,4.166389c0,0.326787,0.035428,0.6439285,0.1056709,0.9490852
	C9.8802309,9.6890154,6.856606,8.0319891,4.8313317,5.5083055c-0.3530555,0.6173296-0.554956,1.3340387-0.554956,2.0969329
	c0,1.444819,0.7243948,2.7203984,1.8254495,3.4677997c-0.6715593-0.0204611-1.3056297-0.2098694-1.859694-0.5197029v0.0511513
	c0,2.019474,1.4145308,3.7039766,3.293108,4.0854244c-0.3441691,0.0979214-0.706666,0.1464367-1.0815573,0.1464367
	c-0.2638998,0-0.5218949-0.0248461-0.7719102-0.0736589c0.5224795,1.6544008,2.0361919,2.8595381,3.8327174,2.8919802
	c-1.4036274,1.1180325-3.1744585,1.7847633-5.096137,1.7847633c-0.3312049,0-0.6588583-0.0192909-0.9791307-0.0575867
	c1.8162708,1.1802921,3.9738312,1.8704052,6.2898836,1.8704052c7.5491524,0,11.676199-6.3478003,11.676199-11.8540697
	c0-0.1812229-0.0041218-0.3624468-0.0106106-0.540163c0.8014336-0.5875139,1.4977818-1.3205924,2.0462475-2.1565595
	c-0.7350197,0.3314624-1.52672,0.5556536-2.3562164,0.6559114C21.9322262,6.8423443,22.5828266,6.0256696,22.8892288,5.0529079z"/>
<g id="XMLID_1_">
</g>
<g id="XMLID_2_">
</g>
<g id="XMLID_3_">
</g>
<g id="XMLID_4_">
</g>
<g id="XMLID_5_">
</g>
<g id="XMLID_6_">
</g>
</svg>
