<?xml version="1.0" encoding="UTF-8" standalone="no"?>
<svg width="25px" height="24px" viewBox="0 0 25 24" version="1.1" xmlns="http://www.w3.org/2000/svg" xmlns:xlink="http://www.w3.org/1999/xlink">
    <!-- Generator: Sketch 41.2 (35397) - http://www.bohemiancoding.com/sketch -->
    <title>scl-icn-git</title>
    <desc>Created with Sketch.</desc>
    <defs></defs>
    <g id="Symbols" stroke="none" stroke-width="1" fill="none" fill-rule="evenodd">
        <g id="Footer" transform="translate(-746.000000, -68.000000)" stroke-width="1.2288" stroke="#1C6FB8">
            <g id="Connected">
                <g transform="translate(611.000000, 54.000000)">
                    <g id="GithHub" transform="translate(126.000000, 5.000000)">
                        <g id="scl-icn-git" transform="translate(10.000000, 10.000000)">
                            <path d="M11.4826189,0.0157972222 C5.28561102,0.0157972222 0.261981102,5.03424167 0.261981102,11.2260194 C0.261981102,16.1778528 3.47687087,20.3795472 7.93607559,21.8617972 C8.49742992,21.965075 8.70194961,21.6188806 8.70194961,21.3218806 C8.70194961,21.0554361 8.69242992,20.3505194 8.68690236,19.4152139 C5.56505984,20.0932417 4.90605197,17.9124917 4.90605197,17.9124917 C4.39690236,16.6178528 3.66081575,16.2731861 3.66081575,16.2731861 C2.64190236,15.5777417 3.7375874,15.5917972 3.7375874,15.5917972 C4.86336693,15.6706306 5.45665827,16.7471028 5.45665827,16.7471028 C6.45776063,18.4597417 8.08255591,17.9650472 8.72252441,17.677825 C8.82447717,16.9533528 9.11405984,16.4592694 9.43496535,16.1787694 C6.94295748,15.8964361 4.32381575,14.9351583 4.32381575,10.6396583 C4.32381575,9.41590833 4.7608,8.41521389 5.4787685,7.63115833 C5.36299685,7.34729722 4.97791024,6.20849167 5.58870551,4.664825 C5.58870551,4.664825 6.53084724,4.36354722 8.67431181,5.81401944 C9.56946929,5.56529722 10.529115,5.44124167 11.4838472,5.43635278 C12.4361228,5.44124167 13.3963827,5.56529722 14.2930756,5.81401944 C16.4350047,4.36354722 17.3753039,4.664825 17.3753039,4.664825 C17.9879417,6.20849167 17.6028551,7.34729722 17.4870835,7.63115833 C18.2065874,8.41521389 18.641115,9.41590833 18.641115,10.6396583 C18.641115,14.9455472 16.0170598,15.8933806 13.5176819,16.1711306 C13.9199654,16.517325 14.2792567,17.2008528 14.2792567,18.2467694 C14.2792567,19.7452139 14.2651307,20.9539917 14.2651307,21.3218806 C14.2651307,21.6216306 14.4671937,21.970575 15.0368394,21.860575 C19.4926661,20.3752694 22.704485,16.1766306 22.704485,11.2260194 C22.704485,5.03424167 17.6802409,0.0157972222 11.4826189,0.0157972222 L11.4826189,0.0157972222 Z"></path>
                        </g>
                    </g>
                </g>
            </g>
        </g>
    </g>
</svg>