<svg width="41" height="46" viewBox="0 0 41 46" xmlns="http://www.w3.org/2000/svg"><g stroke-width="1.229" stroke="#1C6FB8" fill="none" fill-rule="evenodd"><path d="M38.105 35.189l-15.78 9.065a3.7 3.7 0 0 1-3.684 0L2.86 35.189a3.663 3.663 0 0 1-1.843-3.175v-18.13c0-1.31.703-2.52 1.843-3.175l15.78-9.066a3.699 3.699 0 0 1 3.685 0l15.78 9.066a3.662 3.662 0 0 1 1.842 3.174v18.13c0 1.31-.702 2.521-1.843 3.176z" stroke-linecap="round"/><path d="M20.483 12.016c-6.197 0-11.221 5.018-11.221 11.21 0 4.952 3.215 9.154 7.674 10.636.561.103.766-.243.766-.54 0-.267-.01-.971-.015-1.907-3.122.678-3.78-1.503-3.78-1.503-.51-1.294-1.246-1.639-1.246-1.639-1.02-.695.077-.681.077-.681 1.125.079 1.719 1.155 1.719 1.155 1 1.713 2.626 1.218 3.266.93.101-.724.391-1.218.712-1.498-2.492-.283-5.111-1.244-5.111-5.54 0-1.223.437-2.224 1.155-3.008-.116-.284-.501-1.423.11-2.966 0 0 .942-.301 3.085 1.149a10.778 10.778 0 0 1 2.81-.378 10.8 10.8 0 0 1 2.81.378c2.141-1.45 3.081-1.15 3.081-1.15.613 1.544.228 2.683.112 2.967.72.784 1.154 1.785 1.154 3.009 0 4.306-2.624 5.253-5.123 5.531.402.346.761 1.03.761 2.076 0 1.498-.014 2.707-.014 3.075 0 .3.202.649.772.539 4.456-1.486 7.667-5.684 7.667-10.635 0-6.192-5.024-11.21-11.221-11.21z"/></g></svg>