<svg width="41" height="46" viewBox="0 0 41 46" xmlns="http://www.w3.org/2000/svg"><g stroke-width="1.229" stroke="#1C6FB8" fill="none" fill-rule="evenodd"><path d="M38.154 35.354l-15.808 9.15a3.683 3.683 0 0 1-3.692 0l-15.808-9.15A3.703 3.703 0 0 1 1 32.15V13.85c0-1.322.704-2.544 1.846-3.205l15.808-9.15a3.683 3.683 0 0 1 3.692 0l15.808 9.15A3.702 3.702 0 0 1 40 13.85v18.3a3.702 3.702 0 0 1-1.846 3.204z" stroke-linecap="round"/><path d="M30.519 14.55a8.497 8.497 0 0 1-2.723 1.054 4.243 4.243 0 0 0-3.127-1.373c-2.364 0-4.282 1.947-4.282 4.35 0 .34.037.672.11.99-3.56-.182-6.717-1.911-8.831-4.546a4.398 4.398 0 0 0-.58 2.189c0 1.508.757 2.84 1.906 3.62a4.241 4.241 0 0 1-1.941-.542v.053c0 2.109 1.477 3.867 3.438 4.265-.36.103-.738.153-1.13.153-.275 0-.544-.026-.805-.077.545 1.728 2.126 2.986 4.001 3.02a8.511 8.511 0 0 1-6.342 1.803 12.01 12.01 0 0 0 6.566 1.953c7.882 0 12.19-6.628 12.19-12.376 0-.19-.004-.379-.01-.564a8.745 8.745 0 0 0 2.135-2.252 8.44 8.44 0 0 1-2.46.685 4.348 4.348 0 0 0 1.885-2.406z"/></g></svg>