<svg width="41" height="46" viewBox="0 0 41 46" xmlns="http://www.w3.org/2000/svg"><g stroke="#1C6FB8" fill="none" fill-rule="evenodd"><path d="M38.096 35.152l-15.78 9.065a3.7 3.7 0 0 1-3.685 0l-15.78-9.065a3.664 3.664 0 0 1-1.842-3.175v-18.13c0-1.31.703-2.52 1.843-3.175l15.78-9.065a3.7 3.7 0 0 1 3.684 0l15.78 9.065a3.662 3.662 0 0 1 1.843 3.175v18.13c0 1.31-.702 2.52-1.843 3.175z" stroke-width="1.229" stroke-linecap="round"/><path d="M27.007 27.036a.32.32 0 0 1-.221-.088l-3.726-3.505a.325.325 0 0 1 .444-.473l3.725 3.505a.325.325 0 0 1-.222.561zM14.571 27.036a.324.324 0 0 1-.222-.561l3.727-3.505a.323.323 0 1 1 .444.473l-3.727 3.505a.32.32 0 0 1-.222.088z" stroke-width=".614" fill="#1C6FB8"/><path d="M29.21 30.295H12.37a1.623 1.623 0 0 1-1.619-1.623v-11.07c0-.894.726-1.622 1.619-1.622H29.21c.893 0 1.62.728 1.62 1.623v11.069c0 .895-.727 1.623-1.62 1.623zM12.37 16.629a.974.974 0 0 0-.972.974v11.069c0 .537.436.974.972.974H29.21a.974.974 0 0 0 .972-.974v-11.07a.974.974 0 0 0-.972-.973H12.37z" stroke-width=".614" fill="#1C6FB8"/><path d="M20.79 24.769c-.431 0-.862-.144-1.19-.43l-8.313-7.273a.326.326 0 0 1-.031-.458.325.325 0 0 1 .457-.032l8.313 7.273c.414.361 1.113.361 1.526 0l8.303-7.261a.323.323 0 0 1 .457.031.326.326 0 0 1-.03.459l-8.304 7.26c-.328.287-.758.43-1.188.43z" stroke-width=".614" fill="#1C6FB8"/></g></svg>